<svg id="Layer_1" data-name="Layer 1" xmlns="http://www.w3.org/2000/svg" viewBox="0 0 125.13 125.13"><defs><style>.cls-1{fill:#ee2a7b;}.cls-2{fill:#f1f2f2;}</style></defs><circle class="cls-1" cx="62.57" cy="62.57" r="62.57"/><path class="cls-2" d="M88.13,31q-26-.22-52,.8c-2.16.08-4.31.17-6.47.27-1.9.09-4.29-.17-6.08.56-2.12.87-2.15,2.91-2.1,4.87l.17,6.73.65,25.93L23,99.6a2.28,2.28,0,0,0,2.85,2.17c15-3.29,30.57-2.69,45.84-2.65,7.91,0,15.87.29,23.77,0,1.71,0,3.35-.63,3.94-2.39s.3-4.14.31-6c0-3.74-.06-7.47-.23-11.21a234.39,234.39,0,0,0-2.69-26.29,2.26,2.26,0,0,0-2.76-1.57,2.3,2.3,0,0,0-1.57,2.77q1.71,10.9,2.36,21.93.32,5.48.38,11c0,1.79,0,3.57,0,5.36a8.7,8.7,0,0,0,0,2.44l0,.36c.88-.65,1-.92.33-.83a6.57,6.57,0,0,0-2,0c-14.74,0-29.51-.38-44.24,0a132.61,132.61,0,0,0-24.58,2.71l2.84,2.17q-.62-24.93-1.25-49.86L26,37.27a5.65,5.65,0,0,0,0-1.31l-.58.82a1.82,1.82,0,0,0,.57,0l3-.14,6.47-.29q12.43-.5,24.88-.71,13.95-.24,27.88-.11c2.9,0,2.9-4.48,0-4.5Z"/><path class="cls-2" d="M96.44,27.92Q83.68,38.22,70.55,48.06,64,53,57.34,57.77c-4.08,2.94-8.25,5.92-11.52,9.79-3.52,4.17-6,9.31-5.88,14.86a2.26,2.26,0,0,0,2.25,2.25C54.61,83.16,65,76.13,74.35,68.21c5.13-4.35,10.05-8.94,15-13.46q8.2-7.45,16.39-14.92c1.44-1.31,3-2.57,4.33-4a4.23,4.23,0,0,0,.57-5.59,12.17,12.17,0,0,0-8.33-5.3,2.33,2.33,0,0,0-2.77,1.57,2.27,2.27,0,0,0,1.57,2.77,8.6,8.6,0,0,1,5.87,3.6c-.21-.28.23-.53-.38,0l-.73.67-1.84,1.68-3.67,3.36q-7.45,6.81-14.93,13.58c-8.5,7.7-16.83,16-26.77,21.91a42.73,42.73,0,0,1-16.5,6l2.25,2.25c-.2-9.66,8.51-16,15.52-21q13-9.37,25.63-19.19,7.06-5.49,14-11.11a2.25,2.25,0,0,0,0-3.18,2.29,2.29,0,0,0-3.18,0Z"/><path class="cls-2" d="M85.1,42.34l7.16,5.15a2.24,2.24,0,0,0,3.08-.81A2.23,2.23,0,0,0,95.57,45a2.58,2.58,0,0,0-1-1.35l-7.16-5.15A2.25,2.25,0,0,0,84.06,41a2.58,2.58,0,0,0,1,1.35Z"/></svg>