<svg id="Layer_1" data-name="Layer 1" xmlns="http://www.w3.org/2000/svg" viewBox="0 0 87.01 88.44"><defs><style>.cls-1{fill:#ee2e7b;}</style></defs><path class="cls-1" d="M79.33,20.2a95.63,95.63,0,0,0-25.9-4.91c-8.37-.5-18-1.11-26,1.7C12.43,22.24,3.76,41.1,5,56.11c1.24,14.82,9.27,31.47,23.87,37.08,7.54,2.89,16.64,4.19,24.34,1.29a102.41,102.41,0,0,0,22.44-12C91,71.58,95.55,49.28,89,32c-2-5.36-10.75-3-8.68,2.39,3.35,8.76,3,18,.36,26.92C78.07,69.9,72,74.6,64.51,78.86c-8,4.55-16,9.46-25.47,7.76-8.23-1.48-14.45-5.17-18.83-12.37-8.83-14.53-8.84-34.78,5.36-46.13,6.51-5.2,16.39-4.25,24.24-4a90.42,90.42,0,0,1,27.13,4.75c5.48,1.91,7.83-6.78,2.39-8.68Z" transform="translate(-4.9 -7.67)"/><path class="cls-1" d="M19,92.57C22.26,84.73,27.73,78,32.93,71.4S43.56,58.22,49.12,51.83A482.35,482.35,0,0,1,84.35,15.28C88.6,11.32,82.22,5,78,8.92A484.48,484.48,0,0,0,40.38,48.21c-10.94,12.79-23.56,26.24-30,42-2.2,5.35,6.51,7.69,8.68,2.39Z" transform="translate(-4.9 -7.67)"/></svg>