<svg id="Layer_1" data-name="Layer 1" xmlns="http://www.w3.org/2000/svg" viewBox="0 0 90.9 73.49"><defs><style>.cls-1{fill:#ee2a7b;}</style></defs><path class="cls-1" d="M18.7,40.58C32.44,55,46.72,68.84,61,82.68a3.55,3.55,0,0,0,4.95,0q21.24-21.93,41.7-44.62c3-3.33-1.92-8.3-5-5Q82.26,55.79,61,77.73H66C51.67,63.89,37.39,50,23.65,35.63c-3.12-3.26-8.06,1.69-4.95,4.95Z" transform="translate(-17.71 -10.2)"/><path class="cls-1" d="M21.11,16.07,42.76,35.22,54.31,45.43c2,1.74,4.22,4.54,7.14,4.42S66,47,67.66,45.09q4.74-5.42,9.84-10.5A219.4,219.4,0,0,1,97.74,16.78c3.55-2.77-1.44-7.7-4.95-5A219.65,219.65,0,0,0,75.11,27.12q-3.87,3.75-7.57,7.69c-2.16,2.31-5.08,7.21-7.86,8.52l2.7-.35c-2.76-.64-6.81-5.76-8.9-7.6l-9.38-8.3-18-16c-3.36-3-8.33,2-4.95,5Z" transform="translate(-17.71 -10.2)"/></svg>