<svg id="Layer_1" data-name="Layer 1" xmlns="http://www.w3.org/2000/svg" viewBox="0 0 125.13 125.13"><defs><style>.cls-1{fill:#ee2a7b;}.cls-2{fill:#fff;}</style></defs><circle class="cls-1" cx="62.57" cy="62.57" r="62.57"/><path class="cls-2" d="M81.59,41.19l-.38,32.12L81,89.49l-.09,8a6.63,6.63,0,0,0,0,1.83c-.29-.33.9-.41-.15-.44l-4-.12-32.3-1c-2.65-.08-5.3-.13-7.95-.24-.75,0-1.12.16-1.19-.49a13.31,13.31,0,0,1,.36-3.2q1.19-7.83,2-15.72a327.56,327.56,0,0,0,1.65-35.84c0-2.9-4.53-2.91-4.5,0a326.84,326.84,0,0,1-1.48,34.13q-.81,8.39-2.07,16.72c-.35,2.29-1,4.84.49,6.89,1.68,2.38,4.92,2,7.48,2.09l34.54,1,4,.12a23.09,23.09,0,0,0,4.32,0A3.71,3.71,0,0,0,85,101.14a9.65,9.65,0,0,0,.43-3.93L85.63,80l.46-38.84c0-2.9-4.46-2.9-4.5,0Z"/><path class="cls-2" d="M48.42,42.61c.7,1.39.38,3.27.35,4.76l-.14,6L48.37,65l-.55,23.57c-.06,2.9,4.44,2.9,4.5,0L52.89,64l.28-12.16c0-2,.1-4,.13-6a11.3,11.3,0,0,0-1-5.54C51,37.76,47.12,40,48.42,42.61Z"/><path class="cls-2" d="M64.72,43.38q.38,21.85.14,43.72c0,2.89,4.47,2.9,4.5,0q.24-21.85-.14-43.72c0-2.89-4.54-2.9-4.5,0Z"/><path class="cls-2" d="M27.48,37.66a507.91,507.91,0,0,1,54.58-3.31q7.78-.06,15.59.13c2.89.07,2.89-4.43,0-4.5A508.52,508.52,0,0,0,43,31.62q-7.77.64-15.52,1.54a2.33,2.33,0,0,0-2.25,2.25,2.27,2.27,0,0,0,2.25,2.25Z"/><path class="cls-2" d="M44.46,32.77c1.42-1.66,1.15-3.32.62-5.28a7.4,7.4,0,0,1-.21-.92c.18-.32,1.06-.47,1.42-.53a35.9,35.9,0,0,1,5.78-.15l7.22-.09,14.21-.17,3.49,0a27.08,27.08,0,0,0,3.49,0c.94-.14.09.15.19-.35a4,4,0,0,0,.19.91,5.65,5.65,0,0,0,.89,2.59,2.32,2.32,0,0,0,3.08.81,2.27,2.27,0,0,0,.81-3.08,3.16,3.16,0,0,1-.44-1.51,5.12,5.12,0,0,0-.83-2.21c-1.17-1.65-3.06-1.67-4.89-1.65L67,21.21l-12.71.15-6.23.07a12.12,12.12,0,0,0-4.47.72,4.86,4.86,0,0,0-3.16,3.75,6.88,6.88,0,0,0,.24,2.63,4.48,4.48,0,0,0,.31,1.1c.22.34-.11.41.28,0a2.3,2.3,0,0,0,0,3.18,2.26,2.26,0,0,0,3.18,0Z"/></svg>