<svg id="Layer_1" data-name="Layer 1" xmlns="http://www.w3.org/2000/svg" viewBox="0 0 99.23 84.71"><defs><style>.cls-1{fill:#ee2e7b;}</style></defs><path class="cls-1" d="M77.88,7.72q-28.8-.24-57.57.88l-7.19.31c-2,.09-4.56-.16-6.51.53-2.51.9-2.39,3.39-2.33,5.6l.18,7.22.72,28.61L6,83.46a2.28,2.28,0,0,0,2.84,2.17c16.61-3.66,33.83-3,50.72-2.95l26,.06c1.92,0,3.94-.41,4.63-2.48.62-1.85.32-4.21.33-6.14q0-6.48-.25-12.94a260.9,260.9,0,0,0-3-29A2.27,2.27,0,0,0,84.5,30.6a2.31,2.31,0,0,0-1.57,2.77c1.28,8.08,2.15,16.23,2.63,24.4Q85.92,63.86,86,70c0,2,0,4.07,0,6.11a13.07,13.07,0,0,0-.06,2.84s.44-.69.46-.67-.29,0-.34,0a6.67,6.67,0,0,0-1.73,0c-16.42,0-32.88-.41-49.3,0a146.05,146.05,0,0,0-27.34,3l2.85,2.17q-.7-27.61-1.4-55.23L8.76,14.3c0-.25,0-.5,0-.75,0-.53.23-.75-.33-.24s-.21.34.25.31l3.72-.18,6.94-.3q13.75-.56,27.53-.79,15.51-.27,31-.13c2.89,0,2.89-4.47,0-4.5Z" transform="translate(-4.26 -0.98)"/><path class="cls-1" d="M87.25,4.22Q73.16,15.59,58.69,26.44,51.36,31.93,43.92,37.3c-4.51,3.25-9.12,6.54-12.73,10.81-3.86,4.57-6.59,10.22-6.46,16.31A2.26,2.26,0,0,0,27,66.67C40.86,65,52.46,57,62.85,48.15c5.65-4.82,11.09-9.89,16.59-14.88q9-8.13,17.91-16.3c1.62-1.48,3.4-2.88,4.88-4.5a4.4,4.4,0,0,0,.4-5.7A13.35,13.35,0,0,0,93.55,1a2.33,2.33,0,0,0-2.77,1.57,2.26,2.26,0,0,0,1.57,2.77A9.89,9.89,0,0,1,96,6.57a8.89,8.89,0,0,1,1.63,1.22l.52.54c.16.17.62,1,.78,1l.09.16c.13-.37.13-.45,0-.24s-.34.33-.51.5c-.72.68-1.46,1.33-2.18,2l-4,3.67q-8.2,7.5-16.44,15C66.33,39.1,57,48.5,45.83,55.2a48,48,0,0,1-18.85,7l2.25,2.25C29,53.63,38.72,46.58,46.55,40.93Q60.89,30.57,74.88,19.71,82.71,13.64,90.43,7.4a2.26,2.26,0,0,0,0-3.18,2.29,2.29,0,0,0-3.18,0Z" transform="translate(-4.26 -0.98)"/><path class="cls-1" d="M74.63,19.81l7.94,5.71a2.3,2.3,0,0,0,1.74.22,2.27,2.27,0,0,0,1.34-1,2.3,2.3,0,0,0-.81-3.08L76.9,15.92a2.25,2.25,0,0,0-3.07.81,2.31,2.31,0,0,0,.8,3.08Z" transform="translate(-4.26 -0.98)"/></svg>