<svg id="Layer_1" data-name="Layer 1" xmlns="http://www.w3.org/2000/svg" viewBox="0 0 89.75 90.02"><defs><style>.cls-1{fill:#ee2e7b;}</style></defs><path class="cls-1" d="M46.61,92.72C46.74,82.35,40.3,73,34,65.34A117.73,117.73,0,0,0,23.52,54.49C20,51.2,16.47,47.82,14,43.63c-2.19-3.78-3.57-8.38-2.43-12.72s4.69-8,8-11a43.21,43.21,0,0,1,11.77-7.61c4-1.74,8.31-2.35,12.48-.71a16,16,0,0,1,8.76,8.53,35.9,35.9,0,0,1,1.78,8,27.7,27.7,0,0,0,2.37,8.06c.92,1.86,4.18,1.49,4.57-.59C62.76,27.76,65,17.94,74.4,16.9a32.85,32.85,0,0,1,6.65.06A7.88,7.88,0,0,1,86.15,19a14.24,14.24,0,0,1,2.78,5.53,41.44,41.44,0,0,1,1.48,6.89,45.65,45.65,0,0,1,.2,14,27.75,27.75,0,0,1-4.94,11.38C80.7,63.76,73.38,69.1,66.49,74c-4.29,3-8.75,5.79-13.23,8.55-4.11,2.53-8,5.36-10.8,9.36a2.53,2.53,0,0,0,.9,3.43,2.56,2.56,0,0,0,3.42-.9c2.51-3.6,6.36-6,10-8.21,4.28-2.6,8.49-5.28,12.57-8.18,7.71-5.49,15.66-11.44,21-19.34a31,31,0,0,0,5.2-13.3,55.47,55.47,0,0,0-.5-16c-.73-4.79-2-10.31-5.46-13.94s-9.11-3.87-13.77-3.69a19.8,19.8,0,0,0-8.12,1.89A16.92,16.92,0,0,0,62,18.8c-3.35,4.46-4.48,10.05-5.49,15.42l4.57-.6c-2.23-4.5-1.79-9.81-3.51-14.48A21.07,21.07,0,0,0,49,8.63,19.51,19.51,0,0,0,35.24,5.92c-5.12.86-10.09,3.59-14.3,6.56a46.2,46.2,0,0,0-11,10.74A18.94,18.94,0,0,0,6.58,37.89C8.49,48.66,17.66,55.44,24.89,62.72A82.86,82.86,0,0,1,36,76.49c3.13,4.89,5.72,10.31,5.64,16.23,0,3.22,5,3.22,5,0Z" transform="translate(-6.27 -5.63)"/></svg>