<svg id="Layer_1" data-name="Layer 1" xmlns="http://www.w3.org/2000/svg" viewBox="0 0 81.55 81.55"><defs><style>.cls-1{fill:#ec008c;}.cls-2{fill:#fff;}</style></defs><circle class="cls-1" cx="40.78" cy="40.78" r="40.78"/><path class="cls-1" d="M28.15,51A312.35,312.35,0,0,1,81,51.87" transform="translate(-11.21 -9.22)"/><path class="cls-2" d="M28.15,53a331.6,331.6,0,0,1,40.74-.06q6.09.4,12.14,1a2,2,0,0,0,2-2,2.05,2.05,0,0,0-2-2A329.43,329.43,0,0,0,40.32,48.4c-4.06.12-8.12.32-12.17.55a2,2,0,0,0-2,2,2,2,0,0,0,2,2Z" transform="translate(-11.21 -9.22)"/><path class="cls-1" d="M54,23.06A479,479,0,0,0,49.59,79.3" transform="translate(-11.21 -9.22)"/><path class="cls-2" d="M52.1,22.53Q49,44.63,48,66.93q-.28,6.18-.41,12.37a2,2,0,0,0,4,0Q52,57.4,54.46,35.59c.45-4,1-8.12,1.49-12a2,2,0,0,0-1.39-2.46,2,2,0,0,0-2.46,1.4Z" transform="translate(-11.21 -9.22)"/></svg>