<svg id="Layer_1" data-name="Layer 1" xmlns="http://www.w3.org/2000/svg" viewBox="0 0 123.68 92.76"><defs><style>.cls-1{fill:#ee2e7b;}</style></defs><path class="cls-1" d="M22.46,89c-.23-1.21,0,.34,0-.37,0-.32,0-.65,0-1,0-.1.1-.72,0-.17,0-.25.1-.51.17-.76s.18-.63.29-.94c.23-.67-.4.7.16-.39a16.41,16.41,0,0,1,1-1.71,8.6,8.6,0,0,1,1-1.07,12.35,12.35,0,0,1,1.27-1.13,27.14,27.14,0,0,1,3.18-1.91,67.66,67.66,0,0,1,16-5.12,82.49,82.49,0,0,1,17.19-1.66c6.34,0,12.61.27,18.9-.71a75.39,75.39,0,0,0,16.64-4.91A114.82,114.82,0,0,0,113.81,60a21.69,21.69,0,0,0,10.24-12.55A26.77,26.77,0,0,0,123.23,31a56.26,56.26,0,0,0-8.37-14.73c-3.55-4.68-7.67-8.66-13.3-10.67a41.34,41.34,0,0,0-9-1.77q-4.48-.54-9-.82a171.62,171.62,0,0,0-17.86-.22,175.72,175.72,0,0,0-36,5.17C19.42,10.55,8,15.21,3.32,25.57c-5,11,0,22.54,6.89,31.48,1.69,2.2,3.44,3.94,4.69,6.14a9.68,9.68,0,0,1,.81,6.3c-.93,5.38-3.39,10.4-3.37,16a15.08,15.08,0,0,0,2.21,8.1A3.75,3.75,0,1,0,21,89.76,6,6,0,0,1,20,87.13c-.17-.72-.07-.32,0-.13,0-.32-.06-.65-.07-1a16,16,0,0,1,0-2c0-.33.05-.67.1-1,0,.18-.1.57,0-.19.1-.54.2-1.06.32-1.59.31-1.33.7-2.64,1.09-4,1.71-5.67,3-11.61.32-17.21-1.19-2.46-3.16-4.49-4.86-6.61a56.13,56.13,0,0,1-4.13-6,31.47,31.47,0,0,1-3-6.45,17.52,17.52,0,0,1-1-6.88,9.84,9.84,0,0,1,.43-2.87c.17-.63.37-1.24.59-1.85,0-.08.29-.65.06-.15.15-.34.32-.68.5-1s.48-.88.75-1.31c.17-.26.34-.53.52-.79.08-.1.55-.76.21-.31a21.34,21.34,0,0,1,2.31-2.53c.42-.4.85-.78,1.29-1.15.1-.08.73-.59.29-.25l.62-.45a29.46,29.46,0,0,1,3.31-2.05,38.45,38.45,0,0,1,7-2.89,146.53,146.53,0,0,1,33.17-6,170.91,170.91,0,0,1,17.38-.41c2.94.07,5.88.23,8.81.46,2.57.2,5.63.47,7.86.81a23.63,23.63,0,0,1,7.43,2.12A18.74,18.74,0,0,1,106.62,18a43.36,43.36,0,0,1,4.19,5.49,56.08,56.08,0,0,1,4,6.81,27.81,27.81,0,0,1,2.37,7.08,13.62,13.62,0,0,1,.27,2.78,19,19,0,0,1,0,2c0,.27,0,.53-.07.8-.12,1.22.15-.62-.09.58a13.19,13.19,0,0,1-2.44,6c.27-.38-.12.15-.15.19l-.67.75c-.41.43-.85.84-1.3,1.23-.2.18-.41.35-.62.51.36-.27-.18.11-.21.13-.61.42-1.22.83-1.86,1.21A104.62,104.62,0,0,1,95.94,60a75.65,75.65,0,0,1-16.19,4.78c-5.36.86-11.49.49-17.14.48A93.34,93.34,0,0,0,44.8,66.93a81.37,81.37,0,0,0-15.88,4.7c-5.22,2.16-10.32,5.3-12.68,10.68a14.29,14.29,0,0,0-1,8.65,3.75,3.75,0,0,0,7.23-2Z" transform="translate(-1.3 -2.63)"/></svg>