<svg id="Layer_1" data-name="Layer 1" xmlns="http://www.w3.org/2000/svg" viewBox="0 0 74.58 82.31"><defs><style>.cls-1{fill:#ee2e7b;}</style></defs><path class="cls-1" d="M74.33,22.42l-.39,32.11-.19,16.19-.09,8a6.71,6.71,0,0,0,0,1.84c-.29-.34.91-.41-.15-.45l-4-.11L37.2,79c-2.65-.08-5.3-.13-8-.24-.75,0-1.12.16-1.19-.5a12.81,12.81,0,0,1,.37-3.19c.78-5.22,1.44-10.47,2-15.72a327.62,327.62,0,0,0,1.65-35.85c0-2.89-4.53-2.9-4.5,0a326.72,326.72,0,0,1-1.48,34.13Q25.27,66,24,74.37c-.34,2.29-1,4.84.49,6.89,1.68,2.38,4.92,2,7.49,2.09l34.53,1,4,.12a23.09,23.09,0,0,0,4.32,0,3.71,3.71,0,0,0,2.91-2.12,9.61,9.61,0,0,0,.43-3.93l.2-17.17.47-38.84c0-2.9-4.47-2.9-4.5,0Z" transform="translate(-17.97 -2.28)"/><path class="cls-1" d="M41.15,23.84c.7,1.38.39,3.27.35,4.76l-.13,5.95L41.1,46.22l-.54,23.57c-.07,2.9,4.43,2.9,4.5,0l.56-24.57.28-12.16c.05-2,.1-4,.14-6a11.42,11.42,0,0,0-1-5.54c-1.31-2.59-5.19-.31-3.89,2.27Z" transform="translate(-17.97 -2.28)"/><path class="cls-1" d="M57.46,24.61q.36,21.86.13,43.72c0,2.89,4.47,2.89,4.5,0q.24-21.87-.13-43.72c-.05-2.89-4.55-2.9-4.5,0Z" transform="translate(-17.97 -2.28)"/><path class="cls-1" d="M20.22,18.89a507.58,507.58,0,0,1,54.57-3.32q7.8,0,15.59.14c2.9.07,2.9-4.43,0-4.5a511.11,511.11,0,0,0-54.65,1.63Q28,13.5,20.22,14.39A2.32,2.32,0,0,0,18,16.64a2.26,2.26,0,0,0,2.25,2.25Z" transform="translate(-17.97 -2.28)"/><path class="cls-1" d="M37.19,14c1.42-1.67,1.15-3.32.62-5.28a9.25,9.25,0,0,1-.21-.93c.18-.31,1.06-.46,1.42-.52a37.15,37.15,0,0,1,5.78-.16L52,7l14.2-.17,3.49,0a29,29,0,0,0,3.49,0c.94-.14.09.14.19-.35a4,4,0,0,0,.19.91,5.69,5.69,0,0,0,.89,2.59,2.32,2.32,0,0,0,3.08.81,2.28,2.28,0,0,0,.81-3.08,3.27,3.27,0,0,1-.44-1.51,5,5,0,0,0-.83-2.22C75.93,2.29,74,2.27,72.21,2.29l-12.46.15L47,2.59l-6.23.07a12,12,0,0,0-4.46.72,4.81,4.81,0,0,0-3.16,3.75,6.7,6.7,0,0,0,.23,2.63,4.5,4.5,0,0,0,.32,1.1c.22.34-.12.41.27,0A2.31,2.31,0,0,0,34,14a2.27,2.27,0,0,0,3.18,0Z" transform="translate(-17.97 -2.28)"/></svg>