<svg id="Layer_1" data-name="Layer 1" xmlns="http://www.w3.org/2000/svg" viewBox="0 0 127.03 134.14"><defs><style>.cls-1{fill:#3c88ac;}.cls-2{fill:#ee2c7b;}</style></defs><path class="cls-1" d="M42.59,142.41c19.36,0,37.9-17,37-37s-16.26-37-37-37c-19.35,0-37.89,17-37,37s16.26,37,37,37Z" transform="translate(-5.56 -8.27)"/><path class="cls-2" d="M90,66.27c15.17,0,29.7-13.34,29-29s-12.74-29-29-29c-15.17,0-29.7,13.33-29,29s12.74,29,29,29Z" transform="translate(-5.56 -8.27)"/><path class="cls-2" d="M119.55,135.26c17.37,0,17.4-27,0-27s-17.4,27,0,27Z" transform="translate(-5.56 -8.27)"/></svg>