<?xml version="1.0" encoding="utf-8"?>
<!-- Generator: Adobe Illustrator 24.2.0, SVG Export Plug-In . SVG Version: 6.00 Build 0)  -->
<svg version="1.1" id="Layer_1" xmlns="http://www.w3.org/2000/svg" xmlns:xlink="http://www.w3.org/1999/xlink" x="0px" y="0px"
	 viewBox="0 0 269.29 170.08" style="enable-background:new 0 0 269.29 170.08;" xml:space="preserve">
<style type="text/css">
	.st0{fill:#010101;}
	.st1{fill:#E4087E;}
</style>
<g>
	<g>
		<path class="st0" d="M7,64.21c0-0.1,0.04-0.27,0.11-0.49s0.14-0.39,0.19-0.49c0.2-0.35,0.64-1.01,1.3-1.97
			c0.66-0.96,1.67-2.48,3.02-4.55c1.35-2.07,3.12-4.82,5.31-8.23c2.19-3.42,4.96-7.78,8.32-13.09h-2.14L8.23,37.64H7.46
			c-0.36,0-0.79-0.09-1.3-0.27c-0.51-0.18-0.99-0.4-1.45-0.68c-0.46-0.28-0.84-0.59-1.15-0.95c-0.31-0.35-0.46-0.73-0.46-1.14
			c0-0.76,0.2-1.33,0.61-1.71c0.41-0.38,0.92-0.66,1.53-0.83c0.61-0.18,1.25-0.27,1.91-0.27c0.66,0,1.25,0,1.76,0l16.42-2.2
			c0.05,0,0.38-0.01,0.99-0.04c0.61-0.02,1.04-0.04,1.3-0.04c0.66,0,1.37,0,2.14,0s1.46,0.09,2.1,0.27
			c0.64,0.18,1.16,0.49,1.57,0.95c0.41,0.46,0.61,1.14,0.61,2.05c0,0.51-0.17,1-0.5,1.48c-0.33,0.48-0.67,0.85-1.03,1.1l-12.6,20.11
			c-0.76,0.51-1.36,1.28-1.79,2.31c-0.43,1.04-0.93,1.91-1.49,2.62c0.1,0.15,0.23,0.24,0.38,0.27c0.15,0.03,0.31,0.04,0.46,0.04
			h0.46l35.82-4.86c0.66,0,1.41,0.2,2.25,0.61c0.84,0.41,1.26,1.04,1.26,1.9c0,0.76-0.15,1.38-0.46,1.86
			c-0.31,0.48-0.79,0.95-1.45,1.4c-1.32,0-3.09,0.04-5.31,0.11c-2.21,0.08-5.02,0.3-8.4,0.68c-3.39,0.38-7.45,0.94-12.18,1.67
			c-4.73,0.73-10.28,1.73-16.65,3c-0.15,0.05-0.33,0.08-0.53,0.08h-0.69c-0.36,0-0.8-0.05-1.34-0.15c-0.53-0.1-1.04-0.25-1.53-0.46
			c-0.48-0.2-0.89-0.48-1.22-0.83C7.17,65.37,7,64.92,7,64.36V64.21z M20.22,9.64c-0.15-0.2-0.13-0.4,0.08-0.61
			c0.2-0.2,0.5-0.37,0.88-0.49c0.38-0.13,0.79-0.23,1.22-0.3c0.43-0.08,0.8-0.11,1.11-0.11c0.1,0,0.36,0.04,0.76,0.11
			c0.41,0.08,0.66,0.17,0.76,0.27c1.07,1.16,1.91,2.11,2.52,2.85c0.61,0.73,1.09,1.33,1.45,1.78c0.36,0.46,0.6,0.78,0.73,0.99
			c0.13,0.2,0.27,0.38,0.42,0.53l0.31,0.15l4.74-4.78c0.51-0.61,1.42-0.91,2.75-0.91c0.71,0,1.27,0.05,1.68,0.15
			c0.41,0.1,0.61,0.35,0.61,0.76c0,0.15-0.01,0.27-0.04,0.34c-0.03,0.08-0.11,0.22-0.27,0.42c-0.1,0.15-0.32,0.39-0.65,0.72
			c-0.33,0.33-0.69,0.68-1.07,1.06s-0.74,0.75-1.07,1.1c-0.33,0.35-0.57,0.58-0.73,0.68c0,0.05-0.06,0.14-0.19,0.27
			c-0.13,0.13-0.22,0.19-0.27,0.19c-0.15,0.15-0.43,0.43-0.84,0.83c-0.41,0.41-0.84,0.82-1.3,1.25c-0.46,0.43-0.89,0.85-1.3,1.25
			c-0.41,0.41-0.69,0.68-0.84,0.83c-0.25,0.2-0.51,0.33-0.76,0.38c-0.25,0.05-0.59,0.08-0.99,0.08c-0.46,0-0.94-0.02-1.45-0.08
			c-0.51-0.05-0.87-0.2-1.07-0.46c-0.1-0.2-0.32-0.58-0.65-1.14c-0.33-0.56-0.55-0.91-0.65-1.06L20.22,9.64z"/>
		<path class="st0" d="M60.23,24.13c0.41-0.56,0.78-0.92,1.11-1.1c0.33-0.18,0.8-0.27,1.41-0.27c0.81,0,1.59,0.23,2.33,0.68
			c0.74,0.46,1.16,1.11,1.26,1.97c0.2,1.42,0.32,2.85,0.34,4.29c0.02,1.44,0.02,2.88,0,4.33c-0.03,1.44-0.05,2.88-0.08,4.33
			c-0.03,1.44,0.01,2.87,0.12,4.29c0.2,3.44,0.52,7.01,0.95,10.7c0.43,3.69,0.65,7.26,0.65,10.7c0,1.01-0.2,1.77-0.61,2.28
			c-0.41,0.51-1.2,0.76-2.37,0.76c-0.97,0-1.71-0.33-2.21-0.99c-0.51-0.66-0.88-1.44-1.11-2.35c-0.23-0.91-0.37-1.83-0.42-2.77
			c-0.05-0.94-0.08-1.68-0.08-2.24c0-0.4-0.04-1.25-0.11-2.54c-0.08-1.29-0.15-2.81-0.23-4.55s-0.17-3.59-0.27-5.54
			c-0.1-1.95-0.2-3.79-0.31-5.54c-0.1-1.75-0.19-3.26-0.27-4.55c-0.08-1.29-0.12-2.14-0.12-2.54v-4.71V24.13z"/>
		<path class="st0" d="M92.92,56.39c-0.56,1.06-1.24,2.25-2.02,3.57c-0.79,1.32-1.71,2.57-2.75,3.76c-1.04,1.19-2.16,2.19-3.36,3
			c-1.2,0.81-2.48,1.21-3.86,1.21c-1.73,0-3.11-0.51-4.12-1.52s-1.79-2.26-2.33-3.76c-0.53-1.49-0.88-3.06-1.03-4.71
			c-0.15-1.64-0.23-3.12-0.23-4.44v-1.97c0.05-0.4,0.11-1.01,0.19-1.82c0.08-0.81,0.18-1.73,0.31-2.77
			c0.13-1.04,0.24-2.13,0.34-3.26c0.1-1.14,0.22-2.23,0.34-3.26c0.13-1.04,0.23-1.96,0.31-2.77c0.08-0.81,0.14-1.42,0.19-1.82
			c-0.2-0.51-0.27-1.02-0.19-1.56c0.08-0.53,0.25-1.01,0.53-1.44c0.28-0.43,0.65-0.78,1.11-1.06c0.46-0.28,0.97-0.42,1.53-0.42
			c0.15,0,0.42,0.05,0.8,0.15c0.38,0.1,0.78,0.25,1.18,0.46c0.41,0.2,0.76,0.42,1.07,0.65c0.31,0.23,0.46,0.44,0.46,0.65v2.88
			c-0.71,5.46-1.17,9.82-1.37,13.05c-0.2,3.24-0.28,5.76-0.23,7.55c0.05,1.8,0.2,3.02,0.46,3.68c0.25,0.66,0.51,1.11,0.76,1.37
			c0.61,0.25,1.21,0.32,1.79,0.19c0.58-0.13,1.29-0.59,2.1-1.4c0.81-0.81,1.79-2.06,2.94-3.76c1.15-1.69,2.53-3.96,4.16-6.79
			c0.1-0.15,0.22-0.43,0.34-0.83c0.13-0.4,0.22-0.68,0.27-0.83c-0.1-3.34-0.11-6.7-0.04-10.09c0.08-3.39,0.19-6.75,0.34-10.09
			c0.2-0.51,0.53-0.91,0.99-1.21c0.46-0.3,0.94-0.46,1.45-0.46c0.2,0,0.51,0.08,0.92,0.23c0.41,0.15,0.81,0.37,1.22,0.65
			c0.41,0.28,0.76,0.57,1.07,0.87s0.46,0.61,0.46,0.91v22.39c0.36,2.28,0.64,4.57,0.84,6.87c0.2,2.3,0.48,4.59,0.84,6.87
			c0,0.25,0.06,0.77,0.19,1.56c0.13,0.78,0.27,1.63,0.42,2.54c0.15,0.91,0.29,1.75,0.42,2.5c0.13,0.76,0.22,1.24,0.27,1.44v0.91
			c0,1.82-0.99,2.81-2.98,2.96c-0.87,0.1-1.59-0.27-2.18-1.1s-1.06-1.92-1.41-3.26c-0.36-1.34-0.65-2.85-0.88-4.52
			c-0.23-1.67-0.42-3.29-0.57-4.86c-0.15-1.57-0.31-3-0.46-4.29C93.38,57.87,93.17,56.95,92.92,56.39z M74.13,19.2
			c0-0.86,0.31-1.48,0.92-1.86c0.61-0.38,1.27-0.65,1.99-0.8l19.17-1.9c0.87,0,1.68,0.15,2.44,0.46s1.15,0.96,1.15,1.97
			c0,0.25-0.17,0.53-0.5,0.83c-0.33,0.3-0.7,0.58-1.11,0.83c-0.41,0.25-0.84,0.47-1.3,0.65c-0.46,0.18-0.79,0.22-0.99,0.11
			l-18.86,2.05c-0.66,0-1.31-0.21-1.95-0.65C74.45,20.48,74.13,19.91,74.13,19.2z"/>
		<path class="st0" d="M108.27,49.48c-0.31-0.66-0.55-1.19-0.73-1.59c-0.18-0.4-0.27-0.88-0.27-1.44c0-0.46,0.06-0.87,0.19-1.25
			c0.13-0.38,0.19-0.8,0.19-1.25c0-1.11-0.04-2.15-0.11-3.11c-0.08-0.96-0.17-2.02-0.27-3.19c-0.05-0.15-0.23-0.28-0.53-0.38
			c-0.31-0.1-0.64-0.24-0.99-0.42c-0.36-0.18-0.68-0.44-0.96-0.8c-0.28-0.35-0.42-0.86-0.42-1.52c0-0.61,0.14-1.13,0.42-1.56
			c0.28-0.43,0.57-0.83,0.88-1.21c0.31-0.38,0.6-0.78,0.88-1.21c0.28-0.43,0.42-0.95,0.42-1.56c0-0.25-0.03-0.72-0.08-1.4
			c-0.05-0.68-0.09-1.4-0.11-2.16c-0.03-0.76-0.05-1.48-0.08-2.16c-0.03-0.68-0.04-1.15-0.04-1.4V21.7v-0.15
			c0.2-0.46,0.37-0.83,0.5-1.14c0.13-0.3,0.27-0.53,0.42-0.68c0.15-0.15,0.36-0.27,0.61-0.34s0.58-0.11,0.99-0.11
			c1.07,0,1.86,0.2,2.37,0.61c0.51,0.41,0.87,0.87,1.07,1.4c0.2,0.53,0.33,1.02,0.38,1.48c0.05,0.46,0.18,0.71,0.38,0.76l5.5-4.78
			h0.31c1.78-1.16,3.67-2.06,5.65-2.69c1.99-0.63,4.07-0.95,6.26-0.95c0.66,0,1.46,0.08,2.41,0.23c0.94,0.15,1.83,0.42,2.67,0.8
			c0.84,0.38,1.55,0.87,2.14,1.48c0.58,0.61,0.88,1.37,0.88,2.28c0,1.01-0.13,2.05-0.38,3.11c-0.26,1.06-0.6,2.11-1.03,3.15
			c-0.43,1.04-0.94,2.02-1.53,2.96c-0.59,0.94-1.21,1.73-1.87,2.39c-0.25,0.56-1.88,1.97-4.89,4.25c-3,2.28-7.48,5.67-13.44,10.17
			l36.66,2.28c0.51,0.05,1.21,0.09,2.1,0.11c0.89,0.03,1.76,0.11,2.6,0.27c0.84,0.15,1.57,0.44,2.18,0.87
			c0.61,0.43,0.92,1.08,0.92,1.94c0,0.46-0.06,0.82-0.19,1.1c-0.13,0.28-0.28,0.51-0.46,0.68c-0.18,0.18-0.38,0.34-0.61,0.49
			c-0.23,0.15-0.45,0.35-0.65,0.61h-1.3H156c-1.02-0.1-2.08-0.23-3.17-0.38c-1.1-0.15-2.37-0.33-3.82-0.53
			c-1.45-0.2-3.14-0.4-5.08-0.61c-1.94-0.2-4.25-0.38-6.95-0.53c-2.7-0.15-5.84-0.28-9.43-0.38c-3.59-0.1-7.75-0.15-12.49-0.15
			c-0.05,0-0.12,0.08-0.19,0.23s-0.11,0.28-0.11,0.38c0,1.92,0.17,3.81,0.5,5.65c0.33,1.85,0.5,3.68,0.5,5.5
			c0,0.35-0.04,0.75-0.12,1.18c-0.08,0.43-0.22,0.83-0.42,1.21c-0.2,0.38-0.46,0.7-0.76,0.95c-0.31,0.25-0.69,0.38-1.15,0.38
			c-0.31,0-0.66-0.06-1.07-0.19c-0.41-0.13-0.8-0.32-1.18-0.57c-0.38-0.25-0.73-0.53-1.03-0.83c-0.3-0.3-0.48-0.66-0.53-1.06
			L108.27,49.48z M113.39,32.71c0,1.27,0.03,2.45,0.08,3.57c0.05,1.11,0.13,2.33,0.23,3.64h0.23c0.05,0,0.18-0.05,0.38-0.15
			c0.2-0.1,0.71-0.42,1.53-0.95c0.81-0.53,2.06-1.37,3.74-2.5c1.68-1.14,4.05-2.74,7.1-4.82c0.61-0.35,1.27-0.96,1.99-1.82
			c0.71-0.86,1.38-1.8,1.99-2.81c0.61-1.01,1.12-2.01,1.53-3c0.41-0.99,0.61-1.81,0.61-2.47c0-0.51-0.24-0.76-0.73-0.76
			c-0.48,0-0.9,0-1.26,0c-0.76,0-1.63,0.13-2.6,0.38c-0.97,0.25-2.13,0.76-3.48,1.52c-1.35,0.76-2.95,1.85-4.81,3.26
			c-1.86,1.42-4.04,3.31-6.53,5.69V32.71z"/>
		<path class="st0" d="M167.08,65.42c-0.51-2.02-0.89-3.93-1.15-5.73c-0.25-1.8-0.43-3.71-0.53-5.73c-0.05-1.16-0.05-2.16,0-3
			c0.05-0.83-0.05-1.76-0.31-2.77c-0.05-0.2-0.17-0.35-0.34-0.46c-0.18-0.1-0.36-0.23-0.54-0.38s-0.34-0.34-0.5-0.57
			c-0.15-0.23-0.23-0.59-0.23-1.1c0-0.4,0.09-0.76,0.27-1.06c0.18-0.3,0.36-0.59,0.54-0.87c0.18-0.28,0.36-0.58,0.53-0.91
			c0.18-0.33,0.27-0.72,0.27-1.18v-1.14c0-0.51-0.05-1.37-0.15-2.58c-0.1-1.21-0.2-2.5-0.3-3.87c-0.1-1.37-0.19-2.66-0.27-3.87
			c-0.08-1.21-0.14-2.05-0.19-2.5c-0.05-0.86-0.28-1.62-0.69-2.28c-0.41-0.66-0.61-1.42-0.61-2.28c0-1.62,0.33-2.76,0.99-3.42
			c0.66-0.66,1.83-0.99,3.51-0.99c0.36,0,0.65,0.15,0.88,0.46c0.23,0.3,0.5,0.46,0.8,0.46h0.31c0.15-0.05,0.38-0.11,0.69-0.19
			c0.31-0.08,0.51-0.11,0.61-0.11c4.28-1.82,7.61-3.24,10-4.25c2.39-1.01,4.2-1.75,5.42-2.2c1.22-0.46,2.05-0.71,2.48-0.76
			c0.43-0.05,0.8,0,1.11,0.15c0.61,0.1,1.03,0.29,1.26,0.57c0.23,0.28,0.34,0.7,0.34,1.25c0,0.51-0.08,1.01-0.23,1.52
			c-0.15,0.51-0.51,0.89-1.07,1.14l-10,4.78l-0.3,0.3l-8.4,3.57c-0.31,0.1-0.48,0.35-0.53,0.76c-0.05,0.41-0.08,0.73-0.08,0.99
			c0,0.41,0.05,1.14,0.15,2.2c0.1,1.06,0.2,2.16,0.31,3.3c0.1,1.14,0.22,2.15,0.34,3.04c0.13,0.89,0.22,1.33,0.27,1.33h0.08
			l0.08-0.08c0.56-0.4,1.45-1.1,2.67-2.09c1.22-0.99,2.47-1.99,3.74-3c1.27-1.01,2.39-1.91,3.36-2.69c0.97-0.78,1.48-1.18,1.53-1.18
			c0.56,0,1.07,0.28,1.53,0.83c0.46,0.56,0.69,1.14,0.69,1.75c0,0.61-0.13,1.29-0.38,2.05c-0.26,0.76-0.66,1.34-1.22,1.75
			l-11.91,10.55c0,0.51-0.01,0.91-0.04,1.21c-0.03,0.3-0.04,0.62-0.04,0.95c0,0.33,0,0.6,0,0.8c0,1.82,0.13,3.63,0.38,5.43
			c0.25,1.8,0.38,3.61,0.38,5.43h0.31c0.05,0,0.28-0.2,0.69-0.61c0.41-0.4,0.71-0.73,0.92-0.99c0.1-0.15,0.34-0.48,0.73-0.99
			c0.38-0.5,1.03-1.34,1.95-2.5c0.92-1.16,2.14-2.71,3.67-4.63c1.53-1.92,3.49-4.35,5.88-7.29c0.2-0.2,0.5-0.51,0.88-0.91
			c0.38-0.4,0.62-0.61,0.72-0.61c0.15-0.15,0.47-0.21,0.96-0.19c0.48,0.03,0.83,0.09,1.03,0.19c0.25,0.1,0.58,0.38,0.99,0.83
			c0.41,0.46,0.61,0.89,0.61,1.29c0,0.61-0.32,1.4-0.95,2.39c-0.64,0.99-1.39,2.01-2.25,3.07c-0.87,1.06-1.73,2.09-2.6,3.07
			c-0.87,0.99-1.53,1.78-1.99,2.39c-0.71,1.11-1.57,2.47-2.56,4.06c-0.99,1.59-2.08,3.11-3.25,4.55c-1.17,1.44-2.46,2.68-3.86,3.72
			c-1.4,1.04-2.89,1.56-4.47,1.56c-0.76,0-1.31-0.13-1.64-0.38C168,66.53,167.58,66.08,167.08,65.42z M170.44,7.59
			c0-0.56,0.11-1.13,0.34-1.71c0.23-0.58,0.53-1.1,0.92-1.56s0.81-0.83,1.3-1.14c0.48-0.3,0.98-0.46,1.49-0.46
			c1.27,0,2.33,0.38,3.17,1.14c0.84,0.76,1.62,1.62,2.33,2.58v0.38c0,1.42-0.43,2.71-1.3,3.87c-0.87,1.16-2.04,1.75-3.51,1.75
			c-0.51,0-1.04-0.15-1.6-0.46c-0.56-0.3-1.07-0.68-1.53-1.14c-0.46-0.46-0.84-0.97-1.15-1.56C170.59,8.71,170.44,8.14,170.44,7.59z
			"/>
		<path class="st0" d="M210,33.77c-0.05-0.4-0.11-0.92-0.19-1.56c-0.08-0.63-0.15-1.24-0.23-1.82c-0.08-0.58-0.17-1.28-0.27-2.09
			h-0.61l-8.71,2.58c-0.25,0.41-0.67,0.61-1.26,0.61c-0.59,0-1.03,0-1.34,0c-0.71,0-1.44-0.32-2.18-0.95
			c-0.74-0.63-1.11-1.33-1.11-2.09c0-0.56,0.19-1.1,0.57-1.63s0.85-0.9,1.41-1.1l12.3-3.87c0.15-0.56,0.45-1.13,0.88-1.71
			c0.43-0.58,1-0.87,1.72-0.87c0.71,0,1.31,0.18,1.79,0.53c0.48,0.35,1.03,0.63,1.64,0.83c0.46-0.05,1.22-0.2,2.29-0.46
			c1.07-0.25,2.2-0.52,3.4-0.8c1.2-0.28,2.33-0.54,3.4-0.8c1.07-0.25,1.81-0.43,2.21-0.53c0.61-0.1,1.07-0.23,1.37-0.38
			c0.31-0.15,0.79-0.23,1.45-0.23c0.87,0,1.76,0.25,2.67,0.76c0.92,0.51,1.38,1.27,1.38,2.28c0,0.66-0.23,1.23-0.69,1.71
			c-0.46,0.48-1.02,0.8-1.68,0.95l-14.51,3.64v0.68c0,1.57,0.14,3.11,0.42,4.63c0.28,1.52,0.37,3.04,0.27,4.55l2.6,23.45v1.67
			c0,0.61-0.01,1.23-0.04,1.86c-0.03,0.63-0.13,1.2-0.31,1.71c-0.18,0.51-0.47,0.92-0.88,1.25c-0.41,0.33-1.02,0.49-1.83,0.49
			c-0.61,0-1.26-0.25-1.95-0.76c-0.69-0.51-1.06-1.11-1.11-1.82L210,34.38V33.77z"/>
		<path class="st0" d="M229.39,24.13c0.41-0.56,0.78-0.92,1.11-1.1c0.33-0.18,0.8-0.27,1.41-0.27c0.81,0,1.59,0.23,2.33,0.68
			c0.74,0.46,1.16,1.11,1.26,1.97c0.2,1.42,0.32,2.85,0.34,4.29c0.03,1.44,0.03,2.88,0,4.33c-0.03,1.44-0.05,2.88-0.08,4.33
			c-0.03,1.44,0.01,2.87,0.11,4.29c0.2,3.44,0.52,7.01,0.96,10.7c0.43,3.69,0.65,7.26,0.65,10.7c0,1.01-0.2,1.77-0.61,2.28
			c-0.41,0.51-1.2,0.76-2.37,0.76c-0.97,0-1.71-0.33-2.21-0.99c-0.51-0.66-0.88-1.44-1.11-2.35c-0.23-0.91-0.37-1.83-0.42-2.77
			c-0.05-0.94-0.08-1.68-0.08-2.24c0-0.4-0.04-1.25-0.11-2.54s-0.15-2.81-0.23-4.55c-0.08-1.75-0.17-3.59-0.27-5.54
			c-0.1-1.95-0.2-3.79-0.31-5.54c-0.1-1.75-0.19-3.26-0.27-4.55c-0.08-1.29-0.11-2.14-0.11-2.54v-4.71V24.13z"/>
	</g>
	<g>
		<path class="st1" d="M86.32,85.81c-0.53-0.38-1.03-1-1.51-1.86c-0.48-0.86-0.72-1.62-0.72-2.29c0-0.71,0.29-1.26,0.86-1.64
			c0.58-0.38,1.17-0.57,1.8-0.57c0.77,0,1.41,0.14,1.94,0.43c0.53,0.29,1.04,0.76,1.55,1.43c0.5,0.67,1.08,1.57,1.73,2.71
			c0.65,1.14,1.47,2.59,2.48,4.32c1.01,1.74,2.28,3.81,3.81,6.22c1.53,2.41,3.43,5.21,5.68,8.4c0.14,0.38,0.41,0.85,0.79,1.39
			c0.38,0.55,0.62,0.89,0.72,1.04l0.29-0.57l3.96-14.79l0.29-0.64l2.8-9.93c-0.14-0.86,0.05-1.62,0.58-2.29c0.53-0.67,1.2-1,2.01-1
			c0.81,0,1.64,0.27,2.48,0.82c0.84,0.55,1.26,1.28,1.26,2.18v0.29l-8.2,30.51c0,0.1-0.05,0.39-0.14,0.89
			c-0.1,0.5-0.19,1.05-0.29,1.64c-0.1,0.6-0.19,1.19-0.29,1.79c-0.1,0.6-0.17,1.06-0.22,1.39c-0.05,0.43-0.08,0.89-0.11,1.39
			c-0.03,0.5-0.12,0.95-0.29,1.36c-0.17,0.41-0.42,0.75-0.75,1.04c-0.34,0.29-0.84,0.43-1.51,0.43c-1.15,0-2.01-0.31-2.59-0.93
			c-0.58-0.62-1.01-1.37-1.29-2.25c-0.29-0.88-0.53-1.81-0.72-2.79c-0.19-0.98-0.5-1.8-0.94-2.46L86.32,85.81z"/>
		<path class="st1" d="M126.45,118.32c-0.48-1.9-0.84-3.7-1.08-5.39c-0.24-1.69-0.41-3.49-0.5-5.4c-0.05-1.1-0.05-2.04,0-2.82
			c0.05-0.79-0.05-1.66-0.29-2.61c-0.05-0.19-0.16-0.33-0.32-0.43c-0.17-0.1-0.34-0.21-0.5-0.36c-0.17-0.14-0.32-0.32-0.47-0.54
			s-0.22-0.56-0.22-1.04c0-0.38,0.08-0.71,0.25-1c0.17-0.29,0.33-0.56,0.5-0.82s0.33-0.55,0.5-0.86c0.17-0.31,0.25-0.68,0.25-1.11
			v-1.07c0-0.48-0.05-1.29-0.14-2.43c-0.1-1.14-0.19-2.36-0.29-3.64c-0.1-1.29-0.18-2.5-0.25-3.65c-0.07-1.14-0.13-1.93-0.18-2.36
			c-0.05-0.81-0.26-1.52-0.65-2.14c-0.38-0.62-0.58-1.33-0.58-2.14c0-1.52,0.31-2.6,0.93-3.22c0.62-0.62,1.73-0.93,3.31-0.93
			c0.33,0,0.61,0.14,0.83,0.43c0.22,0.29,0.47,0.43,0.75,0.43h0.29c0.14-0.05,0.36-0.11,0.65-0.18c0.29-0.07,0.48-0.11,0.58-0.11
			c4.03-1.72,7.17-3.05,9.42-4c2.25-0.95,3.96-1.64,5.11-2.07c1.15-0.43,1.93-0.67,2.34-0.71c0.41-0.05,0.75,0,1.04,0.14
			c0.58,0.1,0.97,0.27,1.19,0.54c0.22,0.26,0.32,0.66,0.32,1.18c0,0.48-0.07,0.95-0.22,1.43c-0.14,0.48-0.48,0.83-1.01,1.07
			l-9.42,4.5l-0.29,0.29l-7.91,3.36c-0.29,0.1-0.46,0.33-0.5,0.71c-0.05,0.38-0.07,0.69-0.07,0.93c0,0.38,0.05,1.07,0.14,2.07
			c0.1,1,0.19,2.04,0.29,3.11c0.09,1.07,0.2,2.03,0.32,2.86c0.12,0.83,0.2,1.25,0.25,1.25h0.07l0.07-0.07
			c0.53-0.38,1.37-1.04,2.52-1.96c1.15-0.93,2.33-1.87,3.52-2.82c1.2-0.95,2.25-1.8,3.16-2.54c0.91-0.74,1.39-1.11,1.44-1.11
			c0.53,0,1.01,0.26,1.44,0.79c0.43,0.53,0.65,1.07,0.65,1.64s-0.12,1.21-0.36,1.93c-0.24,0.71-0.62,1.26-1.15,1.64l-11.22,9.93
			c0,0.48-0.01,0.86-0.04,1.14c-0.02,0.29-0.04,0.58-0.04,0.89c0,0.31,0,0.56,0,0.75c0,1.71,0.12,3.42,0.36,5.11
			c0.24,1.69,0.36,3.39,0.36,5.11h0.29c0.05,0,0.26-0.19,0.65-0.57c0.38-0.38,0.67-0.69,0.86-0.93c0.09-0.14,0.32-0.45,0.68-0.93
			c0.36-0.47,0.97-1.26,1.83-2.36s2.01-2.55,3.45-4.36c1.44-1.81,3.28-4.1,5.54-6.86c0.19-0.19,0.47-0.47,0.83-0.86
			c0.36-0.38,0.59-0.57,0.68-0.57c0.14-0.14,0.44-0.2,0.9-0.18c0.46,0.02,0.78,0.08,0.97,0.18c0.24,0.1,0.55,0.36,0.94,0.79
			c0.38,0.43,0.58,0.83,0.58,1.21c0,0.57-0.3,1.32-0.9,2.25s-1.31,1.89-2.12,2.89c-0.82,1-1.63,1.97-2.45,2.89
			c-0.82,0.93-1.44,1.68-1.87,2.25c-0.67,1.05-1.47,2.32-2.41,3.82s-1.95,2.93-3.06,4.29c-1.1,1.36-2.31,2.53-3.63,3.5
			c-1.32,0.98-2.72,1.46-4.21,1.46c-0.72,0-1.23-0.12-1.55-0.36C127.32,119.37,126.93,118.94,126.45,118.32z M129.61,63.87
			c0-0.52,0.11-1.06,0.32-1.61c0.22-0.55,0.5-1.04,0.86-1.46s0.77-0.79,1.22-1.07c0.46-0.29,0.92-0.43,1.4-0.43
			c1.2,0,2.19,0.36,2.98,1.07c0.79,0.71,1.52,1.52,2.19,2.43v0.36c0,1.33-0.41,2.55-1.22,3.64c-0.82,1.1-1.92,1.64-3.31,1.64
			c-0.48,0-0.98-0.14-1.51-0.43c-0.53-0.29-1.01-0.64-1.44-1.07s-0.79-0.92-1.08-1.47C129.76,64.93,129.61,64.39,129.61,63.87z"/>
		<path class="st1" d="M153.49,108.82c0-3.67,0.06-7.31,0.18-10.93c0.12-3.62,0.18-7.29,0.18-11c0-2.14-0.11-4.29-0.32-6.43
			c-0.22-2.14-0.32-4.29-0.32-6.43c0-0.67,0.2-1.24,0.61-1.71c0.41-0.48,0.95-0.71,1.62-0.71c1.15,0,2.01,0.24,2.59,0.71
			c0.58,0.48,0.98,1.07,1.22,1.79c0.24,0.71,0.36,1.52,0.36,2.43c0,0.91,0,1.79,0,2.64c0,0.19,0.01,0.67,0.04,1.43
			c0.02,0.76,0.06,1.58,0.11,2.46c0.05,0.88,0.08,1.7,0.11,2.47c0.02,0.76,0.04,1.24,0.04,1.43v2.36c0,3.1-0.05,6.17-0.14,9.22
			c-0.1,3.05-0.14,6.15-0.14,9.29v3c0,0.24,0.04,0.56,0.11,0.96c0.07,0.41,0.13,0.61,0.18,0.61h0.58l17.04-6.72
			c0.38-0.33,0.72-0.51,1.01-0.54c0.29-0.02,0.62-0.04,1.01-0.04c0.24,0,0.55,0.01,0.93,0.04c0.38,0.02,0.75,0.1,1.11,0.21
			c0.36,0.12,0.67,0.29,0.94,0.5c0.26,0.21,0.4,0.54,0.4,0.96c0,1.1-0.6,2.05-1.8,2.86c-1.54,0.81-3.12,1.56-4.75,2.25
			c-1.63,0.69-3.29,1.25-4.96,1.68l-0.36,0.29c-2.3,0.62-4.45,1.53-6.44,2.71c-1.99,1.19-4.06,2.29-6.22,3.29h-0.65
			c-1.29,0-2.25-0.43-2.88-1.29c-0.62-0.86-1.03-1.87-1.22-3.04c-0.19-1.17-0.26-2.38-0.22-3.64
			C153.46,110.67,153.49,109.63,153.49,108.82z"/>
		<path class="st1" d="M184.98,79.45c0.38-0.52,0.73-0.87,1.04-1.04c0.31-0.17,0.75-0.25,1.33-0.25c0.77,0,1.5,0.21,2.19,0.64
			c0.69,0.43,1.09,1.05,1.19,1.86c0.19,1.33,0.3,2.68,0.32,4.04c0.02,1.36,0.02,2.71,0,4.07c-0.02,1.36-0.05,2.72-0.07,4.07
			c-0.03,1.36,0.01,2.71,0.11,4.04c0.19,3.24,0.49,6.6,0.9,10.08c0.41,3.48,0.61,6.84,0.61,10.08c0,0.95-0.19,1.67-0.58,2.14
			c-0.38,0.48-1.13,0.71-2.23,0.71c-0.91,0-1.61-0.31-2.09-0.93c-0.48-0.62-0.83-1.36-1.04-2.22s-0.35-1.73-0.4-2.61
			c-0.05-0.88-0.07-1.58-0.07-2.11c0-0.38-0.04-1.18-0.11-2.39c-0.07-1.21-0.14-2.64-0.22-4.29c-0.07-1.64-0.16-3.38-0.25-5.22
			c-0.1-1.83-0.19-3.57-0.29-5.22c-0.1-1.64-0.18-3.07-0.25-4.29c-0.07-1.21-0.11-2.01-0.11-2.39v-4.43V79.45z"/>
		<path class="st1" d="M196.2,115.39c0-2.86,0.19-5.69,0.58-8.5c0.38-2.81,0.72-5.62,1.01-8.43c0-0.14,0.02-0.46,0.07-0.96
			c0.05-0.5,0.11-1.04,0.18-1.61s0.14-1.11,0.22-1.61c0.07-0.5,0.11-0.82,0.11-0.96v-0.29l3.02-22.3c-0.1-0.95,0.06-1.8,0.47-2.54
			c0.41-0.74,1.16-1.11,2.26-1.11c1.2-0.14,2.19,0.01,2.98,0.46c0.79,0.45,1.45,1.04,1.98,1.75c0.53,0.71,0.96,1.5,1.29,2.36
			c0.33,0.86,0.69,1.64,1.08,2.36c0.24,0.67,0.54,1.45,0.9,2.36c0.36,0.91,0.79,2.05,1.29,3.43c0.5,1.38,1.1,3.07,1.8,5.07
			c0.69,2,1.5,4.43,2.41,7.29l0.29,0.29c0.33-0.19,0.97-0.5,1.91-0.93c0.93-0.43,1.92-0.88,2.95-1.36c1.03-0.48,2-0.93,2.91-1.36
			c0.91-0.43,1.56-0.71,1.94-0.86c0.05-0.09,0.18-0.18,0.4-0.25s0.37-0.13,0.47-0.18h0.14c0.48,0,0.84,0.18,1.08,0.54
			c0.24,0.36,0.36,0.7,0.36,1.04c0,0.53-0.12,0.98-0.36,1.36c-0.24,0.38-0.52,0.73-0.83,1.04c-0.31,0.31-0.65,0.61-1.01,0.89
			c-0.36,0.29-0.64,0.6-0.83,0.93l-7.12,3.57c-0.19,0.24-0.29,0.43-0.29,0.57c0,0.38,0.2,0.98,0.61,1.79
			c0.41,0.81,0.73,1.45,0.97,1.93c0.14,0.29,0.38,0.81,0.72,1.57c0.33,0.76,0.69,1.55,1.08,2.36c0.38,0.81,0.75,1.58,1.11,2.32
			c0.36,0.74,0.61,1.25,0.75,1.54v0.21c0,1.71-0.86,2.57-2.59,2.57c-0.53,0-1.08-0.06-1.65-0.18c-0.58-0.12-1.01-0.46-1.29-1.04
			l-4.82-10.22h-0.65c-1.82,1.38-3.76,2.74-5.83,4.07c-2.06,1.33-4.17,2.48-6.33,3.43c-0.34,1.72-0.54,3.46-0.61,5.22
			c-0.07,1.76-0.06,3.53,0.04,5.29c-0.38,0.53-0.77,0.92-1.15,1.18c-0.38,0.26-0.91,0.39-1.58,0.39c-0.67,0-1.18-0.15-1.51-0.46
			c-0.34-0.31-0.58-0.69-0.72-1.14c-0.14-0.45-0.22-0.94-0.22-1.46C196.2,116.3,196.2,115.82,196.2,115.39z M202.6,101.53
			c1.44-0.57,2.84-1.33,4.21-2.29c1.37-0.95,2.67-1.83,3.92-2.64c0.14-0.1,0.32-0.19,0.54-0.29c0.22-0.09,0.42-0.21,0.61-0.36
			c0.19-0.14,0.43-0.31,0.72-0.5v-0.57l-6.62-18.72l-0.29-0.29c-0.14,0.29-0.32,1.1-0.54,2.43c-0.22,1.33-0.46,3.06-0.72,5.18
			c-0.26,2.12-0.55,4.56-0.86,7.32c-0.31,2.76-0.64,5.72-0.97,8.86V101.53z"/>
		<path class="st1" d="M252.36,109.82c-0.53,1-1.16,2.12-1.91,3.36c-0.74,1.24-1.61,2.42-2.59,3.54c-0.98,1.12-2.04,2.06-3.16,2.82
			c-1.13,0.76-2.34,1.14-3.63,1.14c-1.63,0-2.92-0.48-3.88-1.43c-0.96-0.95-1.69-2.13-2.19-3.54c-0.5-1.41-0.83-2.88-0.97-4.43
			c-0.14-1.55-0.21-2.94-0.21-4.18v-1.86c0.05-0.38,0.11-0.95,0.18-1.71c0.07-0.76,0.17-1.63,0.29-2.61c0.12-0.98,0.23-2,0.32-3.07
			c0.09-1.07,0.2-2.1,0.32-3.07c0.12-0.98,0.22-1.85,0.29-2.61c0.07-0.76,0.13-1.33,0.18-1.72c-0.19-0.47-0.25-0.96-0.18-1.46
			c0.07-0.5,0.24-0.95,0.5-1.36c0.26-0.4,0.61-0.74,1.04-1s0.91-0.39,1.44-0.39c0.14,0,0.4,0.05,0.76,0.14
			c0.36,0.1,0.73,0.24,1.11,0.43c0.38,0.19,0.72,0.39,1.01,0.61c0.29,0.21,0.43,0.42,0.43,0.61v2.72c-0.67,5.15-1.1,9.24-1.29,12.29
			c-0.19,3.05-0.26,5.42-0.22,7.11s0.19,2.85,0.43,3.46c0.24,0.62,0.48,1.05,0.72,1.29c0.58,0.24,1.14,0.3,1.69,0.18
			c0.55-0.12,1.21-0.56,1.98-1.32c0.77-0.76,1.69-1.94,2.77-3.54c1.08-1.6,2.38-3.73,3.92-6.4c0.1-0.14,0.2-0.4,0.32-0.79
			c0.12-0.38,0.2-0.64,0.25-0.79c-0.1-3.14-0.11-6.31-0.04-9.5c0.07-3.19,0.18-6.36,0.32-9.5c0.19-0.48,0.5-0.86,0.93-1.14
			c0.43-0.29,0.89-0.43,1.37-0.43c0.19,0,0.48,0.07,0.86,0.21c0.38,0.14,0.77,0.35,1.15,0.61c0.38,0.26,0.72,0.54,1.01,0.82
			c0.29,0.29,0.43,0.57,0.43,0.86v21.08c0.33,2.14,0.6,4.3,0.79,6.47c0.19,2.17,0.46,4.32,0.79,6.47c0,0.24,0.06,0.73,0.18,1.46
			c0.12,0.74,0.25,1.54,0.4,2.39s0.28,1.64,0.4,2.36c0.12,0.71,0.2,1.17,0.25,1.36v0.86c0,1.71-0.94,2.64-2.8,2.79
			c-0.82,0.09-1.5-0.25-2.05-1.04c-0.55-0.79-1-1.81-1.33-3.07c-0.34-1.26-0.61-2.68-0.83-4.25s-0.4-3.1-0.54-4.57
			c-0.14-1.48-0.29-2.82-0.43-4.04C252.8,111.21,252.6,110.35,252.36,109.82z"/>
	</g>
	<g>
		<g>
			<path class="st1" d="M107.29,158.06c-0.9-7.73-1.42-15.58-1.56-23.36c-0.02-1.29-2.02-1.29-2,0c0.14,7.78,0.66,15.63,1.56,23.36
				C105.44,159.33,107.44,159.34,107.29,158.06L107.29,158.06z"/>
		</g>
	</g>
	<g>
		<g>
			<path class="st1" d="M58.03,110.34c8.39,0.32,16.89,0.22,25.27-0.29c1.28-0.08,1.29-2.08,0-2c-8.38,0.51-16.88,0.61-25.27,0.29
				C56.75,108.29,56.75,110.29,58.03,110.34L58.03,110.34z"/>
		</g>
	</g>
	<g>
		<g>
			<path class="st1" d="M85.78,150.53c1.85-2.21,3.54-4.54,5.05-7c0.28-0.46,0.1-1.1-0.36-1.37c-0.48-0.28-1.08-0.1-1.37,0.36
				c-1.42,2.31-3,4.52-4.74,6.59c-0.35,0.41-0.41,1.01,0,1.41C84.72,150.89,85.43,150.95,85.78,150.53L85.78,150.53z"/>
		</g>
	</g>
	<g>
		<g>
			<path class="st1" d="M68.67,132.96c2.79-0.69,5.59-1.38,8.38-2.07c1.25-0.31,0.72-2.24-0.53-1.93c-2.79,0.69-5.59,1.38-8.38,2.07
				C66.89,131.34,67.42,133.27,68.67,132.96L68.67,132.96z"/>
		</g>
	</g>
	<g>
		<g>
			<path class="st1" d="M64.61,91.19c3.1,1.04,6.2,2.09,9.3,3.13c1.22,0.41,1.75-1.52,0.53-1.93c-3.1-1.04-6.2-2.09-9.3-3.13
				C63.92,88.85,63.39,90.78,64.61,91.19L64.61,91.19z"/>
		</g>
	</g>
	<g>
		<g>
			<path class="st1" d="M73.95,75.63c0.33,0.16,0.65,0.34,0.97,0.54c0.16,0.1,0.31,0.2,0.46,0.31c0.07,0.05,0.14,0.1,0.21,0.15
				c0.03,0.02,0.17,0.13,0.04,0.03c-0.14-0.11,0.02,0.01,0.04,0.03c0.58,0.46,1.1,0.98,1.57,1.55c0.15,0.19,0.48,0.29,0.71,0.29
				c0.25,0,0.54-0.11,0.71-0.29c0.17-0.19,0.3-0.44,0.29-0.71c-0.01-0.28-0.12-0.49-0.29-0.71c-0.99-1.22-2.27-2.22-3.69-2.91
				c-0.24-0.12-0.5-0.18-0.77-0.1c-0.23,0.06-0.48,0.24-0.6,0.46C73.35,74.71,73.45,75.38,73.95,75.63L73.95,75.63z"/>
		</g>
	</g>
	<g>
		<g>
			<path class="st1" d="M129.12,148.47c-1.95-2.48-4.03-4.85-6.23-7.11c-0.9-0.92-2.32,0.49-1.41,1.41c2.2,2.25,4.29,4.63,6.23,7.11
				c0.33,0.43,1.06,0.35,1.41,0C129.54,149.46,129.45,148.9,129.12,148.47L129.12,148.47z"/>
		</g>
	</g>
	<g>
		<g>
			<path class="st1" d="M146.82,133.74c-2.45-0.65-4.85-1.48-7.17-2.51c-0.49-0.22-1.07-0.14-1.37,0.36
				c-0.25,0.43-0.14,1.15,0.36,1.37c2.47,1.11,5.02,2.02,7.65,2.71c0.52,0.14,1.09-0.17,1.23-0.7
				C147.66,134.45,147.35,133.88,146.82,133.74L146.82,133.74z"/>
		</g>
	</g>
</g>
</svg>
