<svg id="Layer_1" data-name="Layer 1" xmlns="http://www.w3.org/2000/svg" viewBox="0 0 285.03 81.71"><defs><style>.cls-1{fill:#e4097e;}</style></defs><path class="cls-1" d="M19.11,56.32C36.51,55,52.3,43.18,56,25.54L27.47,21.69l2.07,32.18A14.58,14.58,0,0,0,58,57.72,108.45,108.45,0,0,1,70.18,33.49L43.68,30q4.77,12.63,9.53,25.27C55.49,61.36,60.39,66,67.19,66a14.92,14.92,0,0,0,14-10.65l7.77-24.13L60.46,27.32Q62.4,43.4,64.35,59.5c.87,7.16,4.85,13.32,12.57,14.24,6.76.8,14.38-3.22,15.91-10.39q3.12-14.61,6.23-29.22h-28Q74,42,76.84,49.93c2.2,6.07,7.24,10.65,14,10.65,6,0,12.89-4.45,14-10.65l2.52-14.28-26.5,3.46a27.14,27.14,0,0,1,4,8.9c3.56,12.62,19.63,13.51,26.5,3.46.85-1.24,1.7-2.47,2.54-3.71h-25c1.14,2,.78,1.78.65.73.93,7.77,6,14.5,14.5,14.5s13.7-6.68,14.5-14.5q-.34,1.95.15-.72c.22-1,.47-2,.77-3,.13-.44,1.72-4.1.81-2.27a44.21,44.21,0,0,1,2.3-4c1-1.44,1.17-1.69.53-.75.67-.78,1.38-1.53,2.11-2.25L100.42,25.24a387.86,387.86,0,0,1,1,46.62c-.31,7.83,6.88,14.5,14.5,14.5,8.25,0,14-6.66,14.5-14.5A99.36,99.36,0,0,1,140,35.33l-27-7.32a212.14,212.14,0,0,0,5.81,36.14c4,15.86,28.61,12.53,28.49-3.85a45.37,45.37,0,0,1,4.39-20.69h-25L129,44c7.16,12.89,26.69,6.7,27-7.32a25.28,25.28,0,0,1,.27-3.88A40.5,40.5,0,0,1,157.94,27H130q2.9,14.07,5.8,28.16c2.41,11.7,21.29,14.68,26.5,3.46a45.58,45.58,0,0,1,12.45-16.85l-24.23-6.4c.12.42-.06-4.79-.38-1.72-.08.76-.05,1.54-.09,2.31-.12,2.47-.32,4.94-.49,7.41-.31,4.38-1,9.34.22,13.64,4,13.42,24.37,14.17,28,0,2-7.74,2.69-15.77,4.66-23.51h-28a119,119,0,0,0,11.29,27,14.8,14.8,0,0,0,16.38,6.67c6.46-1.78,10.16-7.57,10.64-14a34.53,34.53,0,0,1,5.19-14.87l-26.5-3.46c.89,2.71,1.79,5.42,2.68,8.13,2.26,6.82,8.6,11.49,15.91,10.39A14.53,14.53,0,0,0,202.6,39.09c0,.11.16-4.53,0-2.69a30.28,30.28,0,0,1,1.12-4.79h-28l5.63,21.23a14.76,14.76,0,0,0,14,10.65c5.86,0,13-4.45,14-10.65a46,46,0,0,1,7.05-19.16h-25l15.57,26.37c8.35,14.13,30.78,4.82,26.5-11.18a28.1,28.1,0,0,1,3.2-22.68l-26.5-3.47q5.69,26.18,11.38,52.35l28-7.71a131.89,131.89,0,0,1-7-45.63l-27,7.32,8.7,18.83c4.54,9.82,20.29,9.12,25,0l2.31-4.43L225,40a138.65,138.65,0,0,0,7.86,19.34c5.44,11,23.92,8.41,26.5-3.46q1.47-6.78,2.95-13.56h-28l1.38,4.49c4.79,15.53,28.23,12.77,28.48-3.85l.15-9.95L239.58,43.25c4.45,5.22,11.86,6.94,18.37,5.32a34.78,34.78,0,0,0,6.29-2.5c1.55-.73-3,.72-.6.27,5.3-1-12.82-6.77-9.06-2.35,6.24,7.33,18.23,4.47,22.78-2.94q-1.77,1.91,0,.14c-1.17.9-1.32,1.1-.45.58s.67-.39-1,.4a11.78,11.78,0,0,1-4.84-.05l-6.4-3.73.3.33c5.28,5.79,15.15,5.36,20.51,0,5.76-5.76,5.29-14.7,0-20.5-9.88-10.84-27-1.93-33.18,8.2l22.77-2.94c-4.45-5.22-11.85-6.94-18.37-5.32a34.78,34.78,0,0,0-6.29,2.5c-1.55.73,3-.72.6-.27-5.29,1,12.82,6.77,9.06,2.35-8.47-10-24.58-1.54-24.76,10.25l-.15,9.95,28.49-3.86-1.39-4.49c-4-13-24.79-14.6-28,0q-1.48,6.78-2.95,13.56l26.5-3.46a80.24,80.24,0,0,1-4.94-12.41c-3.59-11.26-20.48-15-26.5-3.47l-2.31,4.43h25l-8.7-18.83c-2.65-5.74-10.63-8.24-16.37-6.66a14.85,14.85,0,0,0-10.65,14,159.15,159.15,0,0,0,8,53.34c2.47,7.43,10,12.28,17.84,10.13S251.08,75,249.41,67.36Q243.73,41.18,238,15c-2.71-12.48-20.4-13.76-26.5-3.46a58.57,58.57,0,0,0-6.12,45l26.5-11.17L216.34,19c-5.68-9.62-19.25-9.13-25,0a68.91,68.91,0,0,0-10,26.09h28q-2.81-10.6-5.62-21.23c-3.69-13.94-24.12-13.66-28,0a57.28,57.28,0,0,0-2.1,15.19l28.48-3.86c-.9-2.71-1.79-5.42-2.69-8.13-3.9-11.79-19.8-14.4-26.5-3.46a64.73,64.73,0,0,0-9.15,29.5l27-7.31a84.74,84.74,0,0,1-8.37-20c-3.79-13.57-24.4-14-28,0-2,7.74-2.7,15.77-4.67,23.51h28c-.13-.42.05,4.79.37,1.72.08-.76.05-1.55.09-2.31.12-2.47.32-4.94.5-7.41.31-4.38,1-9.35-.23-13.64-3.2-10.88-16.11-13.63-24.23-6.4a70.16,70.16,0,0,0-17,22.73l26.5,3.46q-2.9-14.08-5.8-28.16C156.67,13.1,150,8.63,144,8.63c-6.63,0-11.91,4.57-14,10.65a58.16,58.16,0,0,0-2.93,17.41l27-7.32L151.63,25c-5-9.06-20.23-9.84-25,0a77.91,77.91,0,0,0-8.35,35.32l28.48-3.85A166.13,166.13,0,0,1,141.94,28c-.48-6.43-4.16-12.2-10.64-14-5.85-1.61-13.6,1-16.38,6.66a134.8,134.8,0,0,0-13.49,51.17h29a387.86,387.86,0,0,0-1-46.62c-.48-5.82-3.24-11-8.91-13.25a14.59,14.59,0,0,0-15.84,3c-9.13,9.29-13.86,20.67-15.17,33.5h29c-.68-5.71-1.76-10.3-4.61-15.37-5.64-10-19.1-8.67-25,0Q87.59,35,86.31,36.83l26.51,3.47a60.92,60.92,0,0,0-7-15.82,14.55,14.55,0,0,0-14.44-6.93c-5.24.79-11.06,4.74-12.06,10.39L76.84,42.23h28q-2.86-7.9-5.74-15.81c-2.2-6.07-7.23-10.65-14-10.65-6.1,0-12.66,4.47-14,10.65Q68,41,64.87,55.64L93.35,59.5Q91.4,43.41,89.46,27.32C88.59,20.15,84.61,14,76.88,13.08A14.6,14.6,0,0,0,61,23.46Q57.1,35.54,53.21,47.6h28Q76.41,35,71.64,22.32c-4.42-11.73-19.33-14.38-26.5-3.46A139.38,139.38,0,0,0,30.06,50l28.48,3.86L56.47,21.69C56,14.52,51.31,8.33,43.89,7.45,37.17,6.65,29.47,10.66,28,17.83a31.32,31.32,0,0,1-.85,3.3c-.67,2.07.95-1.58-.18.27-.46.75-1.63,2.63-.41,1a25.05,25.05,0,0,1-2.35,2.48c-1.55,1.55,1.55-.93-.28.28A25.43,25.43,0,0,1,21,26.89c2.59-1.25-5.09.68-1.85.43-7.8.61-14.5,6.23-14.5,14.5,0,7.38,6.65,15.11,14.5,14.5Z" transform="translate(-4.61 -4.64)"/></svg>