<?xml version="1.0" encoding="utf-8"?>
<!-- Generator: Adobe Illustrator 24.2.0, SVG Export Plug-In . SVG Version: 6.00 Build 0)  -->
<svg version="1.1" id="Layer_1" xmlns="http://www.w3.org/2000/svg" xmlns:xlink="http://www.w3.org/1999/xlink" x="0px" y="0px"
	 viewBox="0 0 832 610" style="enable-background:new 0 0 832 610;" xml:space="preserve">
<style type="text/css">
	.st0{fill:#EC008C;}
</style>
<g>
	<g>
		<path class="st0" d="M516,11.67c-41.4,0.02-82.79-1.43-124.2-0.71c-8.42,0.15-18.21-0.32-26.37,1.99
			c-10.18,2.88-18.84,13.16-18.35,24.11c0.5,11.15,7.43,20.92,18.35,24.11c3.9,1.14,7.81,2.28,11.71,3.42c0-16.07,0-32.14,0-48.21
			c-13.08,3.31-26.16,6.63-39.24,9.94c-12.08,3.06-19.51,15.47-17.91,27.43c1.68,12.49,12,21.21,24.55,21.68
			c28.17,1.05,56.35,2.1,84.52,3.15c0-16.67,0-33.33,0-50c-71.37,1.79-142.67,5.94-213.75,12.51c-6.76,0.62-12.73,2.37-17.68,7.32
			c-4.34,4.34-7.6,11.45-7.32,17.68c0.61,13.71,10.98,24.8,25,25c42.27,0.6,84.53,1.21,126.8,1.81c0-16.67,0-33.33,0-50
			c-10.94-0.07-21.88-0.14-32.81-0.21c0,16.67,0,33.33,0,50c98.37-1.19,196.76-0.96,295.13,0.72c27.9,0.48,55.8,1.07,83.7,1.77
			c0-16.67,0-33.33,0-50c-75.13,2.86-150.25,5.73-225.38,8.59c-74.79,2.85-149.59,5.7-224.38,8.55
			c-42.22,1.61-84.43,3.22-126.65,4.83c0,16.67,0,33.33,0,50c27.49-1.81,54.97-3.62,82.46-5.43c13.02-0.86,25.63-10.88,25-25
			c-0.63-14.14-10.99-24.26-25-25c-32.79-1.73-65.63-2.03-98.45-0.89c-13.06,0.45-25.62,11.17-25,25c0.65,14.46,11,23.85,25,25
			c73.19,6,146.37,12.01,219.56,18.01c20.86,1.71,41.73,3.42,62.59,5.13c0-16.67,0-33.33,0-50c-20.88,1.57-41.76,3.14-62.63,4.71
			c-13.01,0.98-25.64,10.8-25,25c0.6,13.36,10.99,25.23,25,25c114.26-1.85,228.52-3.89,342.78-6.14
			c32.31-0.64,64.62-1.29,96.92-1.96c0-16.67,0-33.33,0-50c-16.67,1.64-33.43,2.86-50.03,5.09c-14.77,1.99-28.57,11.56-28.51,28.04
			c0.04,9.07,4.32,16.23,11.24,21.58c7.82,6.04,16,6.36,25.57,4.94c5.53-0.82,12.41-6.71,14.94-11.49
			c2.67-5.05,3.73-10.26,2.97-15.94c-1.64-12.19-12.02-21.63-24.55-21.68c-79.28-0.29-158.57,0.49-237.82,2.38
			c-78.81,1.88-157.59,4.84-236.31,8.9c-44.55,2.29-89.08,4.94-133.59,7.93c-13.02,0.87-25.63,10.87-25,25
			c0.63,14.06,10.99,24.35,25,25c22.88,1.06,45.77,1.44,68.67,1.17c13.07-0.16,25.61-11.39,25-25c-0.29-6.47-2.41-13.17-7.32-17.68
			c-5.21-4.78-10.71-6.47-17.68-7.32c-21.16-2.6-43.55-0.77-63.94,5.51c-10.15,3.13-18.85,12.98-18.35,24.11
			c0.48,10.66,7.36,21.62,18.35,24.11c50.66,11.46,102.59,17.81,154.48,19.55c13.08,0.44,25.59-11.81,25-25
			c-0.65-14.45-11-23.87-25-25c-18.32-1.48-36.64-2.96-54.97-4.44c0,16.67,0,33.33,0,50c72.83,1.34,145.7,0.4,218.48-2.87
			c20.45-0.92,40.89-2.03,61.32-3.31c13.03-0.82,25.63-10.91,25-25c-0.63-14.05-10.99-24.36-25-25
			c-24.86-1.13-49.74-1.09-74.59,0.13c-13.04,0.64-25.63,11.04-25,25c0.61,13.68,10.98,24.84,25,25
			c91.3,1.07,182.62,0.26,273.88-2.47c25.76-0.77,51.52-1.7,77.27-2.77c-2.22-16.37-4.43-32.74-6.65-49.11
			c-9.09,2.8-18.35,4.99-27.73,6.64c-2.26,0.4-4.53,0.77-6.8,1.12c-0.84,0.13-2.5,0.59-3.43,0.5c5.56,0.51,2.87-0.38,0.59-0.1
			c-4.97,0.61-9.96,1.1-14.95,1.52c-20.53,1.7-41.14,2-61.72,2.1c-44.03,0.21-87.97,1-131.95,3.13
			c-89.81,4.36-179.55,10.78-269.29,16.41c-24.95,1.57-49.91,3.41-74.9,4.33c-12.11,0.44-24.24,0.62-36.35,0.29
			c-6-0.17-12-0.46-17.98-0.9c-3.13-0.23-6.26-0.51-9.38-0.84c-1.25-0.13-2.49-0.28-3.73-0.41c-5.33-0.57,4.98,0.73-0.78-0.08
			c-2.22,16.37-4.43,32.74-6.65,49.11c3.76-0.3,7.52-0.49,11.3-0.51c1.78-0.01,3.57,0.02,5.35,0.1c1,0.04,2.01,0.1,3.01,0.18
			c0.68,0.05,5.66,0.67,1.06,0.01c-4.72-0.68,1.94,0.43,2.85,0.65c0.98,0.24,3.73,0.5,4.29,1.28c0.21,0.28-6.04-3.27-2.76-1.1
			c0.22,0.14,1.92,1.04,1.87,1.12c-0.06,0.1-4.5-3.62-3.08-2.29c1.58,1.48-2.91-4.95-1.25-1.41c10.47,22.34,36.2,23.67,57.59,23.56
			c41.22-0.2,82.44-0.44,123.66-0.73c82.43-0.57,164.87-1.32,247.3-2.25c46.53-0.52,93.06-1.1,139.59-1.73
			c-2.22-16.37-4.43-32.74-6.65-49.11c-8.13,1.99-16.25,3.97-24.38,5.96c-10.23,2.5-18.83,13.44-18.35,24.11
			c0.48,10.77,7.37,21.47,18.35,24.11c29.26,7.03,59.16,11.48,89.15,13.93c0-16.67,0-33.33,0-50
			c-89.49,4.94-179.03,8.85-268.6,11.72c-89.73,2.88-179.49,4.72-269.26,5.52c-25.28,0.23-50.56,0.37-75.85,0.43
			c-11.9,0.03-23.82-0.14-35.72,0.12c-12.4,0.27-25.63,1.06-37.27,5.64c-11.71,4.61-19.68,14.24-17.91,27.43
			c1.75,13,11.99,20.49,24.55,21.68c83.89,7.91,168.16,10.67,252.38,11.4c84.84,0.73,169.68-0.56,254.52-0.72
			c47.98-0.09,95.95,0.18,143.92,1.36c-2.22-16.37-4.43-32.74-6.65-49.11c-4.21,0.73-8.42,1.42-12.65,2.06
			c-2.38,0.36-4.92,0.5-7.26,1.05c0.06-0.01,4.99-0.64,2.09-0.29c-1.52,0.19-3.04,0.39-4.56,0.57c-9.17,1.12-18.36,2.03-27.56,2.78
			c-18.31,1.48-36.66,2.3-55.02,2.72c-37.3,0.85-74.62,0.06-111.92-0.41c-37.62-0.47-75.28-0.65-112.85,1.51
			c-37.97,2.18-75.59,7.65-113.34,12.09c-21.45,2.53-42.96,4.67-64.55,5.47c-10.52,0.39-21.05,0.46-31.57,0.08
			c-5.08-0.18-10.16-0.46-15.23-0.86c-2.85-0.22-5.7-0.49-8.54-0.79c-0.95-0.1-1.9-0.2-2.84-0.31c-1.09-0.13-7.69-1-0.93-0.07
			c-2.22,16.37-4.43,32.74-6.65,49.11c82.04-0.04,164.07,0.54,246.1,1.75c81.65,1.21,163.29,3.04,244.92,5.49
			c46.09,1.39,92.16,2.97,138.24,4.76c0-16.67,0-33.33,0-50c-84.31,5.63-168.64,11.26-253.08,14.59
			c-42.3,1.67-84.62,2.75-126.96,2.98c-41.18,0.22-82.37-0.3-123.54,0.63c-47.09,1.06-94.14,4.26-140.59,12.27
			c-12.22,2.11-19.41,16.22-17.91,27.43c1.65,12.3,12.01,21.47,24.55,21.68c85.97,1.39,171.95,2.77,257.92,4.16
			c85.97,1.39,171.95,2.77,257.92,4.16c24,0.39,48,0.61,72,1.24c11.48,0.3,22.97,0.76,34.43,1.62c5.66,0.42,11.31,0.95,16.95,1.6
			c1.24,0.14,2.49,0.31,3.73,0.45c3.23,0.37-5-0.78-0.16-0.01c3.06,0.49,6.12,0.95,9.17,1.49c2.22-16.37,4.43-32.74,6.65-49.11
			c-84.38,5.25-168.84,9.14-253.34,11.68c-84.69,2.54-169.42,3.72-254.15,3.55c-47.67-0.1-95.33-0.63-142.99-1.58
			c-12.45-0.25-22.94,9.71-24.55,21.68c-1.54,11.46,5.66,25.04,17.91,27.43c79.26,15.44,158.66,29.75,239.39,34.67
			c39.88,2.43,79.87,2.96,119.8,1.58c39.76-1.38,79.42-4.82,119.15-6.83c21.8-1.1,43.63-1.78,65.46-1.4
			c11.1,0.2,22.19,0.66,33.26,1.5c5.34,0.4,10.68,0.89,16.01,1.47c2.5,0.27,5,0.58,7.49,0.88c4.65,0.57-0.31-0.11-1.04-0.14
			c1.86,0.1,3.76,0.55,5.59,0.83c0-16.07,0-32.14,0-48.21c-5.3,0.82-10.6,1.58-15.91,2.33c-3.62,0.51,4.63-0.59,1.01-0.14
			c-1.57,0.19-3.14,0.41-4.71,0.6c-2.83,0.35-5.66,0.7-8.5,1.02c-11.07,1.29-22.17,2.38-33.27,3.33
			c-22.42,1.9-44.89,3.17-67.38,4.06c-45.15,1.78-90.34,2.03-135.51,2.47c-92.57,0.91-185.13,1.9-277.7,2.96
			c-52.27,0.6-104.55,1.23-156.82,1.88c2.22,16.37,4.43,32.74,6.65,49.11c5.71-1.09,11.44-2.09,17.18-2.98
			c2.71-0.42,5.58-0.56,8.25-1.2c-5.92,1.43-1.77,0.25-0.19,0.05c1.54-0.19,3.09-0.38,4.63-0.55c11.85-1.36,23.74-2.3,35.65-2.85
			c23.96-1.1,47.97-0.56,71.85,1.56c12.35,1.1,23.03-10.36,24.55-21.68c1.69-12.56-5.94-23.55-17.91-27.43
			c-7.58-2.46-15.1-5.09-22.54-7.96c-2.24-0.86-4.46-1.75-6.68-2.65c-1.65-0.67-5.86-3.49-0.59-0.23c-3.13-1.94-7.04-3.1-10.38-4.66
			c-6.66-3.12-13.22-6.44-19.66-10c-3.11-1.72-6.2-3.48-9.24-5.33c-1.03-0.63-3.68-1.65-4.32-2.77c2.75,2.21,3.19,2.43,1.31,0.67
			c3.48,8.3,4.87,10.46,4.19,6.47c0,4.43,0,8.86,0,13.29c-1.58,2.59-3.17,5.17-4.75,7.76c-8.11,2.14-16.22,4.29-24.32,6.43
			c82.57,23.32,167.46,38.15,252.84,46.36c86.48,8.31,173.25,6.87,259.98,9.82c24.12,0.82,48.23,2.04,72.28,4.06
			c11.57,0.97,23.13,2.13,34.67,3.52c2.79,0.34,5.58,0.7,8.37,1.05c6.16,0.79-4.09-0.59-0.16-0.02c1.54,0.23,3.08,0.43,4.62,0.66
			c6.15,0.89,12.28,1.87,18.4,2.91c2.22-16.37,4.43-32.74,6.65-49.11c-92.56-0.13-185.12-0.27-277.68-0.4
			c-92.11-0.13-184.26-1.01-276.37,0.42c-51.79,0.81-103.58,2.58-155.26,6.31c-13.01,0.94-25.63,10.83-25,25
			c0.63,14.15,10.99,24.24,25,25c92.05,4.97,184.15,8.98,276.29,12.02c92.28,3.04,184.6,5.11,276.92,6.21
			c51.84,0.62,103.68,0.93,155.52,0.94c-2.22-16.37-4.43-32.74-6.65-49.11c-9.11,2.86-18.35,5.27-27.69,7.25
			c-4.5,0.95-9.02,1.81-13.56,2.59c-2.29,0.39-4.59,0.77-6.89,1.12c-1.16,0.18-2.31,0.35-3.47,0.52c-0.86,0.13-5.99,0.69-1.91,0.28
			c3.79-0.38-0.12,0-1.06,0.12c-1.17,0.14-2.35,0.28-3.53,0.42c-2.36,0.27-4.73,0.53-7.09,0.77c-5.07,0.51-10.15,0.95-15.24,1.33
			c-10.32,0.76-20.65,1.27-30.99,1.61c-41.85,1.36-83.75,0.11-125.61-0.12c-88.5-0.49-177.01,0.61-265.47,3.31
			c-49.61,1.51-99.21,3.54-148.79,6.05c-13.04,0.66-25.63,11.02-25,25c0.61,13.58,10.98,24.95,25,25
			c88.79,0.3,177.57,0.6,266.36,0.9c88.02,0.3,176.16-0.69,264.16,1.48c23.81,0.59,47.63,1.61,71.38,3.47
			c12.04,0.95,24.07,2.11,36.06,3.55c2.82,0.34,5.64,0.7,8.46,1.06c3.62,0.46-4.63-0.66-1.03-0.13c1.56,0.23,3.11,0.44,4.67,0.67
			c6.2,0.91,12.38,1.9,18.55,2.98c2.22-16.37,4.43-32.74,6.65-49.11c-84.21,10-169.05,12.99-253.79,14.08
			c-85.56,1.09-171.14,0.24-256.68,2.43c-47.65,1.22-95.28,3.42-142.78,7.43c-13,1.1-25.64,10.71-25,25
			c0.29,6.47,2.41,13.17,7.32,17.68c5.21,4.79,10.71,6.46,17.68,7.32c88.95,11.02,178.53,15.8,268.09,18.1
			c90.59,2.32,181.22,2.13,271.83,3.1c50.79,0.54,101.59,1.46,152.35,3.38c0-16.67,0-33.33,0-50
			c-92.81,11.69-186.56,12.15-279.95,10.36c-93.68-1.8-187.38-5.96-281.09-3.9c-52.35,1.15-104.69,4.29-156.64,10.99
			c-6.89,0.89-12.56,2.2-17.68,7.32c-4.34,4.34-7.6,11.45-7.32,17.68c0.61,13.59,10.98,24.95,25,25
			c90.34,0.33,180.68,0.66,271.01,1.22c90.19,0.56,180.38,1.22,270.56,2.63c25.03,0.39,50.06,0.96,75.06,2.28
			c12.24,0.65,24.48,1.47,36.69,2.55c6.07,0.54,12.13,1.13,18.18,1.8c3.17,0.35,6.35,0.72,9.52,1.12c1.27,0.16,2.53,0.32,3.8,0.48
			c5.36,0.68-4.89-0.68,0.92,0.13c6.96,0.97,12.93,1.18,19.26-2.52c5.19-3.03,10.13-8.98,11.49-14.94
			c1.46-6.4,1.14-13.58-2.52-19.26c-3.26-5.06-8.69-10.62-14.94-11.49c-90.13-12.55-181.81-10.63-272.61-11.54
			c-90.99-0.92-181.99-1.46-272.99-1.87c-51.15-0.23-102.29-0.42-153.44-0.6c0,16.67,0,33.33,0,50
			c92.72-11.95,186.42-12.56,279.75-10.82c93.7,1.74,187.41,5.94,281.15,4.03c52.39-1.07,104.78-4.1,156.79-10.66
			c6.88-0.87,12.57-2.22,17.68-7.32c4.34-4.34,7.6-11.45,7.32-17.68c-0.63-13.97-10.98-24.47-25-25
			c-90.55-3.41-181.18-3.64-271.79-4.3c-90.29-0.66-180.63-1.74-270.79-6.98c-50.02-2.91-99.96-7.14-149.69-13.3
			c0,16.67,0,33.33,0,50c84.97-7.18,170.29-8.51,255.52-8.98c85.4-0.48,170.85-0.09,256.19-3.87c47.29-2.09,94.53-5.51,141.54-11.09
			c6.55-0.78,12.96-2.18,17.68-7.32c3.79-4.13,6.13-8.77,6.88-14.35c1.52-11.28-5.63-25.3-17.91-27.43
			c-86.8-15.09-175.12-14.06-262.91-14.35c-89.45-0.3-178.9-0.6-268.36-0.9c-50.21-0.17-100.43-0.34-150.64-0.51
			c0,16.67,0,33.33,0,50c88.62-4.5,177.33-7.4,266.06-8.7c44.75-0.65,89.51-0.9,134.27-0.73c42.51,0.15,85.05,1.36,127.56,0.49
			c45.79-0.93,92.77-4.29,136.69-18.09c11.94-3.75,19.59-14.92,17.91-27.43c-1.63-12.16-12.02-21.67-24.55-21.68
			c-92.37-0.02-184.75-1-277.1-2.95c-92.26-1.95-184.5-4.87-276.69-8.76c-51.66-2.18-103.31-4.67-154.94-7.46c0,16.67,0,33.33,0,50
			c91.98-6.63,184.24-7.04,276.42-6.94c92.21,0.09,184.42,0.26,276.63,0.4c52.09,0.08,104.17,0.15,156.26,0.23
			c12.47,0.02,22.92-9.53,24.55-21.68c1.51-11.25-5.62-25.34-17.91-27.43c-86.35-14.69-173.98-14.62-261.29-16.2
			c-43.39-0.78-86.75-2.2-130-5.78c-21.39-1.77-42.74-3.99-64.03-6.67c-2.53-0.32-5.05-0.64-7.58-0.97
			c-1.26-0.17-2.52-0.33-3.78-0.5c5.88,0.82,2.25,0.3,0.98,0.12c-5.65-0.8-11.3-1.59-16.94-2.43c-10.6-1.59-21.18-3.29-31.74-5.11
			c-46.03-7.93-91.66-18.13-136.61-30.82c-8.23-2.32-18.47-0.06-24.32,6.43c-7.26,8.05-11.01,18.5-7.73,29.31
			c2.81,9.24,9.45,15.62,17.1,21.03c7.67,5.43,16.33,9.77,24.71,13.98c19.49,9.79,39.89,17.94,60.63,24.66
			c2.22-16.37,4.43-32.74,6.65-49.11c-50.29-4.47-101.09-1.68-150.68,7.76c-12.19,2.32-19.44,16.05-17.91,27.43
			c1.62,12.05,12.03,21.83,24.55,21.68c93.23-1.16,186.46-2.25,279.69-3.25c92.23-0.99,184.59-0.55,276.78-3.58
			c52.1-1.71,104.08-5.5,155.62-13.48c10.29-1.59,18.8-14.11,18.35-24.11c-0.45-10.1-7.33-22.43-18.35-24.11
			c-80.16-12.22-160.4-2.77-240.79,1.14c-39.89,1.94-79.86,2.02-119.75,0.18c-19.7-0.91-39.37-2.28-59.01-4.13
			c-9.91-0.93-19.8-1.99-29.68-3.17c-4.82-0.58-9.64-1.19-14.46-1.81c-0.58-0.08-3.89-0.51-0.55-0.07c3.55,0.46-0.64-0.09-1.51-0.21
			c-2.89-0.4-5.78-0.81-8.67-1.23c-43.8-6.35-87.25-14.79-130.68-23.25c-2.22,16.37-4.43,32.74-6.65,49.11
			c84.73,1.69,169.48,2.04,254.23,1.03c84.66-1.01,169.31-3.38,253.9-7.11c47.47-2.09,94.93-4.62,142.35-7.57
			c12.51-0.78,22.84-8.92,24.55-21.68c1.52-11.29-5.63-25.28-17.91-27.43c-42.74-7.5-86.18-7.16-129.42-7.85
			c-43.32-0.7-86.64-1.4-129.96-2.09c-86.64-1.4-173.28-2.79-259.92-4.19c-48.65-0.78-97.3-1.57-145.95-2.35
			c2.22,16.37,4.43,32.74,6.65,49.11c4.9-0.84,9.8-1.64,14.72-2.38c2.16-0.32,4.32-0.62,6.48-0.93c3.59-0.52-4.68,0.59-1.08,0.14
			c1.55-0.19,3.1-0.4,4.65-0.59c9.98-1.23,19.99-2.25,30.01-3.1c20.29-1.72,40.63-2.73,60.98-3.33c40.52-1.2,81.07-0.8,121.6-0.88
			c84.17-0.18,168.27-3.7,252.28-8.59c47.09-2.74,94.16-5.89,141.23-9.03c13.02-0.87,25.63-10.88,25-25
			c-0.63-13.98-10.98-24.46-25-25c-81.89-3.17-163.8-5.71-245.73-7.63c-81.66-1.91-163.34-3.19-245.02-3.85
			c-46.17-0.37-92.34-0.54-138.5-0.52c-12.47,0.01-22.92,9.51-24.55,21.68c-1.47,10.96,5.58,25.74,17.91,27.43
			c39.94,5.48,79.56,4.4,119.58,0.21c38.61-4.04,76.99-10.12,115.71-13.04c75.73-5.71,151.71-0.84,227.54-1.88
			c43.71-0.6,87.37-3.43,130.49-10.9c12.22-2.12,19.42-16.21,17.91-27.43c-1.66-12.38-12-21.37-24.55-21.68
			c-84.82-2.09-169.66-1.31-254.49-0.76c-84.65,0.55-169.33,0.87-253.94-2.23c-47.54-1.74-95.03-4.58-142.39-9.05
			c2.22,16.37,4.43,32.74,6.65,49.11c1.05-0.41,12.19-3.96,12.32-3.32c0.04,0.17-5.61,0.59-1.57,0.22c1.16-0.11,2.31-0.23,3.47-0.31
			c2.95-0.23,5.91-0.35,8.86-0.43c10.87-0.28,21.75-0.11,32.62-0.13c21.96-0.05,43.91-0.16,65.87-0.33
			c44.57-0.35,89.13-0.95,133.69-1.81c89.37-1.72,178.72-4.46,268.03-8.24c50.05-2.12,100.09-4.56,150.11-7.32
			c13.04-0.72,25.63-10.98,25-25c-0.65-14.46-11-23.86-25-25c-7.07-0.58-14.14-1.27-21.18-2.1c-1.59-0.19-3.18-0.4-4.77-0.59
			c-3.22-0.37,4.87,0.7-0.01,0c-3.46-0.5-6.93-1-10.38-1.56c-13.27-2.12-26.44-4.76-39.51-7.9c0,16.07,0,32.14,0,48.21
			c8.13-1.99,16.25-3.97,24.38-5.96c12.1-2.96,19.5-15.55,17.91-27.43c-1.62-12.04-12.03-21.85-24.55-21.68
			c-82.42,1.12-164.85,2.07-247.28,2.84c-82.44,0.77-164.87,1.37-247.31,1.79c-10.61,0.05-21.38,0.63-31.96-0.26
			c-0.78-0.07-1.57-0.21-2.35-0.23c6.7,0.19,2.91,0.4,0.78-0.15c-0.66-0.17-1.32-0.43-1.98-0.58c-2.91-0.69,5.25,2.86,1.92,0.7
			c0.75,0.49,5.03,3.57,5.13,5.2c-0.04-0.77-1.22-2.17-1.6-2.82c-1.82-3.15-3.97-6.34-6.52-8.93c-14.95-15.16-39.7-16-59.6-14.43
			c-12.51,0.99-22.82,8.76-24.55,21.68c-1.48,11,5.59,25.69,17.91,27.43c45.53,6.44,90.87,3.52,136.56,0.65
			c45.67-2.87,91.34-5.73,137.01-8.6c90.06-5.65,180.1-11.93,270.39-12.15c46.95-0.11,95.73,0.37,141.04-13.6
			c11.95-3.69,19.58-14.98,17.91-27.43c-1.58-11.79-12.07-22.2-24.55-21.68c-91.19,3.79-182.46,5.7-273.72,5.69
			c-25.81,0-51.62-0.16-77.43-0.46c0,16.67,0,33.33,0,50c24.85-1.22,49.73-1.26,74.59-0.13c0-16.67,0-33.33,0-50
			c-72.63,4.56-145.41,6.83-218.19,6.78c-20.54-0.01-41.08-0.22-61.61-0.6c-13.08-0.24-25.6,11.67-25,25c0.65,14.45,11,23.87,25,25
			c18.32,1.48,36.64,2.96,54.97,4.44c0-16.67,0-33.33,0-50c-24.87-0.83-49.7-2.73-74.39-5.82c-1.27-0.16-2.54-0.33-3.81-0.49
			c-3.22-0.39,4.88,0.7,0,0c-3.15-0.45-6.3-0.89-9.45-1.37c-5.94-0.9-11.87-1.87-17.79-2.9c-11.98-2.1-23.9-4.51-35.76-7.19
			c0,16.07,0,32.14,0,48.21c4.29-1.32,8.63-2.43,13.04-3.28c1.14-0.22,2.27-0.42,3.42-0.61c2.78-0.42,2.3-0.38-1.44,0.14
			c2.02-0.72,4.94-0.54,7.07-0.7c9.53-0.71,19.07-0.43,28.55,0.73c0-16.67,0-33.33,0-50c-22.9,0.27-45.8-0.12-68.67-1.17
			c0,16.67,0,33.33,0,50c78.85-5.3,157.78-9.51,236.75-12.62c78.84-3.1,157.72-5.12,236.61-6.05c44.79-0.53,89.58-0.7,134.36-0.54
			c-2.22-16.37-4.43-32.74-6.65-49.11c-0.45,0.07-0.91,0.13-1.36,0.2c4.43,0,8.86,0,13.29,0c3.72,3.1,7.45,6.2,11.17,9.3
			c1.14,4.21,2.28,8.41,3.41,12.62c-0.02-0.29-0.04-0.57-0.06-0.86c-1.14,4.21-2.28,8.41-3.41,12.62c0.16-0.27,0.32-0.54,0.49-0.8
			c-2.99,2.99-5.98,5.98-8.97,8.97c1.99-1.36,1.12-1.07-2.59,0.87c2.62-0.55,1.93-0.52-2.07,0.09c0-0.14,5.29-0.53,5.53-0.55
			c4.29-0.42,8.58-0.84,12.87-1.26c8.91-0.87,17.82-1.75,26.73-2.62c6.79-0.67,12.7-2.34,17.68-7.32c4.34-4.34,7.6-11.45,7.32-17.68
			c-0.6-13.31-10.99-25.29-25-25c-114.25,2.36-228.5,4.52-342.76,6.48c-32.31,0.55-64.63,1.09-96.95,1.61c0,16.67,0,33.33,0,50
			c20.88-1.57,41.76-3.14,62.63-4.71c13.01-0.98,25.64-10.8,25-25c-0.65-14.46-11-23.85-25-25c-73.19-6-146.37-12.01-219.56-18.01
			c-20.86-1.71-41.73-3.42-62.59-5.13c0,16.67,0,33.33,0,50c32.82-1.14,65.66-0.85,98.45,0.89c0-16.67,0-33.33,0-50
			c-27.49,1.81-54.97,3.62-82.46,5.43c-13.02,0.86-25.63,10.88-25,25c0.59,13.12,11,25.53,25,25c75.13-2.86,150.25-5.73,225.38-8.59
			c74.79-2.85,149.59-5.7,224.38-8.55c42.22-1.61,84.43-3.22,126.65-4.83c13.05-0.5,25.62-11.14,25-25
			c-0.62-13.83-10.98-24.65-25-25c-98.34-2.48-196.71-3.54-295.07-3.16c-27.92,0.11-55.84,0.33-83.75,0.67
			c-13.07,0.16-25.61,11.39-25,25c0.61,13.62,10.98,24.91,25,25c10.94,0.07,21.88,0.14,32.81,0.21c13.08,0.08,25.6-11.56,25-25
			c-0.61-13.71-10.98-24.8-25-25c-42.27-0.6-84.53-1.21-126.8-1.81c0,16.67,0,33.33,0,50c71.09-6.56,142.39-10.71,213.75-12.51
			c13.06-0.33,25.62-11.26,25-25c-0.63-13.96-10.98-24.48-25-25c-28.17-1.05-56.35-2.1-84.52-3.15c2.22,16.37,4.43,32.74,6.65,49.11
			c13.08-3.31,26.16-6.63,39.24-9.94c10.22-2.59,18.83-13.38,18.35-24.11c-0.5-11.15-7.43-20.92-18.35-24.11
			c-3.9-1.14-7.81-2.28-11.71-3.42c0,16.07,0,32.14,0,48.21c4.17-1.18-7.8,0.75-4.33,0.52c1.28-0.08,2.55-0.22,3.83-0.29
			c3.77-0.22,7.55-0.31,11.33-0.39c10.98-0.23,21.96-0.24,32.94-0.22c24.25,0.04,48.51,0.33,72.76,0.64
			c6.91,0.09,13.83,0.25,20.75,0.24c13.08-0.01,25.6-11.5,25-25C540.39,23.13,530.02,11.66,516,11.67L516,11.67z"/>
	</g>
</g>
</svg>
