<svg id="Layer_1" data-name="Layer 1" xmlns="http://www.w3.org/2000/svg" viewBox="0 0 284.98 89.57"><defs><style>.cls-1{fill:#3a86aa;}.cls-2{fill:#e4097e;}</style></defs><path class="cls-1" d="M213.87,76.59c11.58,0,11.6-18,0-18s-11.6,18,0,18Z" transform="translate(0 -0.89)"/><path class="cls-1" d="M25.05,38.48c17.38,0,17.41-27,0-27s-17.4,27,0,27Z" transform="translate(0 -0.89)"/><path class="cls-2" d="M14.46,57c17.4-1.32,33.19-13.14,36.89-30.78L22.82,22.38l2.07,32.18a14.58,14.58,0,0,0,28.46,3.85A108.12,108.12,0,0,1,65.53,34.18L39,30.69Q43.8,43.32,48.56,56c2.28,6.09,7.18,10.73,14,10.73A14.93,14.93,0,0,0,76.54,56l7.77-24.13L55.81,28q1.94,16.08,3.89,32.18c.87,7.16,4.85,13.32,12.57,14.24C79,75.23,86.65,71.21,88.18,64q3.12-14.61,6.23-29.22h-28q2.94,7.86,5.78,15.8c2.2,6.07,7.24,10.65,14,10.65,6,0,12.89-4.45,14-10.65l2.52-14.28L76.21,39.8a27,27,0,0,1,4,8.9c3.56,12.62,19.63,13.51,26.5,3.46.85-1.24,1.7-2.47,2.54-3.71h-25c1.14,2,.78,1.78.65.73.93,7.77,6,14.5,14.5,14.5s13.7-6.68,14.5-14.5q-.34,1.95.15-.72c.22-1,.47-2,.77-3,.13-.44,1.72-4.1.81-2.27a42.72,42.72,0,0,1,2.3-4c1-1.44,1.17-1.69.53-.75.67-.78,1.38-1.53,2.11-2.25L95.77,25.93a387.82,387.82,0,0,1,1,46.62c-.31,7.83,6.88,14.5,14.5,14.5,8.25,0,14-6.66,14.5-14.5A99.35,99.35,0,0,1,135.35,36l-27-7.32a212.46,212.46,0,0,0,5.81,36.14c4,15.86,28.61,12.53,28.49-3.85A45.35,45.35,0,0,1,147,40.3H122l2.31,4.39c7.16,12.89,26.69,6.7,27-7.32a25.14,25.14,0,0,1,.27-3.88,40.06,40.06,0,0,1,1.67-5.8H125.35q2.9,14.07,5.8,28.16c2.41,11.7,21.29,14.68,26.5,3.46A45.6,45.6,0,0,1,170.1,42.46l-24.23-6.4c.12.42-.06-4.79-.38-1.72-.08.76-.05,1.54-.09,2.31-.12,2.47-.32,4.94-.49,7.41-.31,4.38-1,9.34.22,13.64,4,13.42,24.37,14.17,28,0,2-7.74,2.69-15.77,4.66-23.51h-28a119.25,119.25,0,0,0,11.29,27,14.81,14.81,0,0,0,16.38,6.67c6.46-1.78,10.16-7.57,10.64-14A34.54,34.54,0,0,1,193.29,39l-26.5-3.46c.89,2.71,1.79,5.42,2.68,8.13,2.26,6.82,8.6,11.49,15.91,10.39A14.53,14.53,0,0,0,198,39.78c0,.11.16-4.53,0-2.69a30,30,0,0,1,1.12-4.79h-28l5.63,21.23a14.77,14.77,0,0,0,14,10.65c5.86,0,13-4.45,14-10.65a45.93,45.93,0,0,1,7.05-19.16h-25l15.57,26.37c8.35,14.13,30.78,4.82,26.5-11.18A28.1,28.1,0,0,1,232,26.88l-26.5-3.47q5.68,26.17,11.38,52.35l28-7.71a131.79,131.79,0,0,1-7-45.63l-27,7.32,8.7,18.83c4.54,9.82,20.29,9.12,25,0l2.31-4.43-26.56-3.45A139.15,139.15,0,0,0,228.21,60c5.44,11,23.92,8.41,26.5-3.46q1.47-6.78,3-13.56h-28L231,47.5c4.79,15.53,28.23,12.77,28.48-3.85l.15-9.95L234.93,43.94c4.45,5.22,11.86,6.94,18.37,5.32a35.53,35.53,0,0,0,6.29-2.5c1.55-.73-3,.72-.6.27,5.3-1-12.82-6.77-9.06-2.35,6.24,7.33,18.23,4.47,22.78-2.94q-1.77,1.9,0,.14c-1.17.9-1.32,1.1-.45.58s.67-.39-1,.4a12,12,0,0,1-4.84,0L260,39.08l.3.33c5.28,5.79,15.15,5.36,20.51,0,5.76-5.76,5.29-14.7,0-20.5-9.88-10.84-27-1.93-33.18,8.2l22.77-2.94C266,19,258.57,17.23,252.05,18.85a34.07,34.07,0,0,0-6.29,2.5c-1.55.73,3-.72.6-.27-5.29,1,12.82,6.77,9.06,2.35-8.47-10-24.58-1.54-24.76,10.25l-.15,10L259,39.77l-1.39-4.49c-4-13-24.79-14.6-28,0q-1.49,6.78-3,13.56l26.5-3.46A80.81,80.81,0,0,1,248.22,33c-3.59-11.26-20.48-15-26.5-3.47l-2.31,4.43h25l-8.7-18.83c-2.65-5.74-10.63-8.24-16.37-6.66a14.84,14.84,0,0,0-10.65,14,159.18,159.18,0,0,0,8,53.34c2.47,7.43,10,12.28,17.84,10.13s11.9-10.22,10.23-17.86q-5.69-26.19-11.41-52.36c-2.71-12.48-20.4-13.76-26.5-3.46a58.54,58.54,0,0,0-6.12,45l26.5-11.17L211.69,19.69c-5.68-9.62-19.25-9.13-25,0a68.94,68.94,0,0,0-10,26.09h28q-2.81-10.61-5.62-21.23c-3.69-13.94-24.12-13.66-28,0A57.28,57.28,0,0,0,169,39.74l28.48-3.86c-.9-2.71-1.79-5.42-2.69-8.13-3.9-11.79-19.8-14.4-26.5-3.46a64.61,64.61,0,0,0-9.15,29.5l27-7.31a85,85,0,0,1-8.37-20c-3.79-13.57-24.4-14-28,0-2,7.74-2.7,15.77-4.67,23.51h28c-.13-.42.05,4.79.37,1.72.08-.76.05-1.55.09-2.31.12-2.47.32-4.94.5-7.41.31-4.38,1-9.35-.23-13.64-3.2-10.88-16.11-13.63-24.23-6.4a70.08,70.08,0,0,0-17,22.73l26.5,3.46L153.27,20C152,13.79,145.35,9.32,139.35,9.32c-6.63,0-11.91,4.57-14,10.65a58.21,58.21,0,0,0-2.93,17.41l27-7.32L147,25.69c-5-9.06-20.23-9.84-25,0A77.91,77.91,0,0,0,113.63,61l28.48-3.85a166.54,166.54,0,0,1-4.82-28.47c-.48-6.43-4.16-12.2-10.64-14-5.85-1.61-13.6,1-16.38,6.66A134.8,134.8,0,0,0,96.78,72.52h29a387.82,387.82,0,0,0-1-46.62c-.48-5.82-3.24-11-8.91-13.25a14.56,14.56,0,0,0-15.84,3c-9.13,9.29-13.86,20.67-15.17,33.5h29c-.68-5.71-1.76-10.3-4.61-15.37-5.64-10-19.1-8.67-25,0-.87,1.27-1.74,2.52-2.59,3.74L108.17,41a61,61,0,0,0-7-15.82,14.54,14.54,0,0,0-14.44-6.93C81.49,19,75.67,23,74.67,28.63L72.19,42.92h28Q97.33,35,94.45,27.11c-2.2-6.07-7.23-10.65-14-10.65-6.1,0-12.66,4.47-14,10.65q-3.11,14.58-6.23,29.22L88.7,60.19Q86.75,44.1,84.81,28C83.94,20.84,80,14.69,72.23,13.77A14.59,14.59,0,0,0,56.35,24.15q-3.9,12.08-7.79,24.14h28Q71.76,35.69,67,23c-4.42-11.73-19.33-14.38-26.5-3.46A139.08,139.08,0,0,0,25.41,50.69l28.48,3.86L51.82,22.38C51.35,15.21,46.66,9,39.24,8.14c-6.72-.8-14.42,3.21-15.89,10.38a32,32,0,0,1-.85,3.3c-.67,2.07.95-1.58-.18.27-.46.75-1.63,2.63-.41,1a26.21,26.21,0,0,1-2.35,2.48c-1.55,1.55,1.55-.93-.28.28a26.19,26.19,0,0,1-2.93,1.73c2.59-1.25-5.09.68-1.85.43C6.7,28.62,0,34.24,0,42.51,0,49.89,6.65,57.62,14.5,57Z" transform="translate(0 -0.89)"/><path class="cls-1" d="M50.77,90.46c5.79,0,5.8-9,0-9s-5.8,9,0,9Z" transform="translate(0 -0.89)"/><path class="cls-1" d="M190.61,9.89c5.79,0,5.8-9,0-9s-5.8,9,0,9Z" transform="translate(0 -0.89)"/></svg>