<svg id="Layer_1" data-name="Layer 1" xmlns="http://www.w3.org/2000/svg" viewBox="0 0 458.81 112.65"><defs><style>.cls-1{fill:#3a86aa;}.cls-2{fill:#e4097e;}</style></defs><path class="cls-1" d="M23.2,76.43c9,0,9-14,0-14s-9,14,0,14Z" transform="translate(-0.44 -2.45)"/><path class="cls-1" d="M303.12,57.39c9.93,0,19.45-8.74,19-19s-8.35-19-19-19c-9.94,0-19.46,8.74-19,19s8.34,19,19,19Z" transform="translate(-0.44 -2.45)"/><path class="cls-1" d="M205,88.43c9.94,0,19.46-8.74,19-19s-8.34-19-19-19c-9.93,0-19.46,8.74-19,19s8.35,19,19,19Z" transform="translate(-0.44 -2.45)"/><path class="cls-2" d="M14.89,66.87c17.4-1.35,33.19-13.14,36.83-30.78L23.24,32.24q1,16.11,2.08,32.18A14.57,14.57,0,0,0,53.8,68.24,108.26,108.26,0,0,1,66,44L39.44,40.58,49,65.86c2.28,6.06,7.18,10.65,14,10.65A14.91,14.91,0,0,0,77,65.86q3.89-12.06,7.76-24.13l-28.5-3.85q2,16.11,3.89,32.18C61,77.22,65,83.38,72.69,84.3c6.76.8,14.38-3.22,15.91-10.39q3.12-14.61,6.23-29.22h-28L72.57,60.5c2.2,6.07,7.24,10.65,14,10.65,6,0,12.89-4.45,14-10.65l2.52-14.26L76.59,49.7a27.23,27.23,0,0,1,4,8.89c3.56,12.62,19.63,13.51,26.5,3.46l2.54-3.71h-25c1.13,2,.77,1.78.65.73.93,7.77,6,14.5,14.5,14.5s13.7-6.68,14.5-14.5q-.34,1.95.15-.72c.21-1,.47-2,.77-3,.13-.44,1.72-4.1.81-2.27a44.14,44.14,0,0,1,2.31-4l.52-.75c.67-.78,1.38-1.53,2.11-2.25L96.19,35.81a387.74,387.74,0,0,1,1,46.61c-.3,7.83,6.88,14.5,14.5,14.5,8.25,0,14-6.65,14.5-14.5a99.59,99.59,0,0,1,9.54-36.53l-27-7.32a211.16,211.16,0,0,0,5.81,36.14c4,15.86,28.61,12.53,28.48-3.85a45.56,45.56,0,0,1,4.42-20.69h-25l2.44,4.4c7.16,12.89,26.69,6.7,27-7.32a25.31,25.31,0,0,1,.27-3.88,41,41,0,0,1,1.63-5.83h-28q2.89,14.1,5.8,28.16c2.41,11.7,21.29,14.68,26.5,3.46A45.61,45.61,0,0,1,170.53,52.3l-22.79-2.93c.72,1.53,1.43,3.06,2.15,4.58,5.46,11.66,23.39,7.82,26.5-3.46.59-2.15,1.19-4.3,1.78-6.46h-28a118.27,118.27,0,0,0,11.3,27,14.75,14.75,0,0,0,16.38,6.66c6.46-1.77,10.16-7.57,10.65-14a34.4,34.4,0,0,1,5.18-14.87l-26.5-3.46c.9,2.71,1.79,5.42,2.69,8.13,2.25,6.82,8.6,11.49,15.91,10.39a14.49,14.49,0,0,0,12.66-14.25c0,.11.16-4.53,0-2.69a30.2,30.2,0,0,1,1-4.79h-28q2.81,10.62,5.62,21.24a14.75,14.75,0,0,0,14,10.65c5.86,0,13-4.45,14-10.65a45.89,45.89,0,0,1,7.07-19.15h-25L202.7,70.61c8.35,14.13,30.77,4.82,26.5-11.17a28.14,28.14,0,0,1,3.2-22.69l-26.54-3.51q5.69,26.19,11.38,52.35l28-7.71a131.75,131.75,0,0,1-7-45.63l-27,7.32,8.7,18.83c4.53,9.82,20.29,9.11,25,0L247.25,54l-26.5-3.46a138.65,138.65,0,0,0,7.86,19.34c5.44,11,23.92,8.41,26.5-3.46q1.47-6.78,2.95-13.56h-28c.46,1.5.92,3,1.39,4.49,4.79,15.52,28.23,12.77,28.48-3.85l.15-9.94-27,7.32L245.2,68c5.86,8.28,19.66,10.45,25,0l7-13.67-26.5-3.46Q252.35,56,254,61.09a14.89,14.89,0,0,0,14,10.65c6,0,12.8-4.46,14-10.65.79-4.16,1-4.83,3.24-8.4h-25l5.67,11.07c5,9.83,19.8,9,25,0l8.52-14.52h-25L285,67.78c5.81,10.17,18.9,8.51,25,0a58.45,58.45,0,0,1,5.13-6,84.88,84.88,0,0,1,7.36-6.69H302l4.44,3.82c8.18,7,21.06,4.69,24.24-6.4.67-2.29,1.33-4.58,2-6.87h-28l4.81,14.22A14.7,14.7,0,0,0,336,63.32a66.06,66.06,0,0,1,8.45-10.64L319.67,42.43q.61,6.75,1.22,13.49c.81,9,8.65,17,18.35,14,1.19-.37,2.37-.69,3.58-1,2.33-.49-1.83,0,.55,0h3.71c2.51.06-.12-.16,1.29.2,4.42,1.12,6.28,2,8.56,4,5.37,4.81,15.35,6.36,20.51,0,.42-.51,4-3.85,2-2.4a16.36,16.36,0,0,1,1.75-1.07c.92-.48.79-.45-.4.08,1.7-.4,1.68-.5-.06-.28,1.49,0,1.68,0,.56-.11a2.94,2.94,0,0,1-1.82-.63,16.67,16.67,0,0,1,2.11,1.53,18.06,18.06,0,0,0,18.12,1c.84-.41,3-1.08,3.38-1.9-1.76,4.09-8-1-8.8-2.18,3.38,4.82,8.36,7.84,14.45,6.92,5.29-.8,11-4.73,12-10.39l-.84,2-5.2,5.2-7.54,1c-1.54-.82-1.85-1-1-.43A13.41,13.41,0,0,0,408,72.59a22.69,22.69,0,0,0,10.47,2.81c8.35,0,14.2-4.76,17-12.42l-21.3,8.67a54.16,54.16,0,0,0,19,8.57C440.46,82,449.23,78,451,70.09c.5-1.64.46-1.85-.13-.6a14.23,14.23,0,0,1,1.52-2.42l-12.52,7.17-1.05.17-6.36-3.72-.29-.83c4.45,6.43,12.71,9.37,19.84,5.2,6.37-3.73,9.68-13.37,5.2-19.84s-9.64-9.27-17.3-10c-5.26-.48-9.74,3.2-12.52,7.18a28.27,28.27,0,0,0-4.31,10l17.8-10.16a29.87,29.87,0,0,1-12.06-5.65c-8.2-5.91-18.4.7-21.3,8.67-.1.28-.2.56-.31.84l3.73-6.4-.56.57,6.4-3.73c1.8-.76,3.16.54,4.73.37,1.38-.15-.17-.33-1.05-.82A23.11,23.11,0,0,0,410,43.24C402.29,43.19,394.34,48,392.82,56l26.5-3.46c-4.16-5.94-9.47-9.87-16.77-10.84-6.87-.91-11.53,1.91-17.5,4.52l7.32-2q6,2.39,2.81.23l-1.1-.7a23.89,23.89,0,0,0-5.8-2.39,27.34,27.34,0,0,0-13.33,0,34.24,34.24,0,0,0-18,11.36h20.49C365,41.45,347.76,36.94,331.54,41.94l18.35,14q-.61-6.75-1.22-13.49c-.53-5.84-3.2-11-8.91-13.25-5.25-2.11-11.78-1.29-15.84,3A115,115,0,0,0,311,48.71l26.5,3.46L332.69,38c-4.49-13.27-23.88-14.27-28,0-.65,2.29-1.31,4.58-2,6.87l24.24-6.4-4.48-3.82c-6.44-5.48-14-5.29-20.51,0a95.11,95.11,0,0,0-17,18.56h25L299.44,34.6c-5.4-9.46-19.61-9.35-25,0L266,49.16h25l-5.67-11.07c-5.18-10.11-19.52-8.7-25,0a44.18,44.18,0,0,0-6.16,15.33h28q-1.65-5.13-3.31-10.26c-3.6-11.18-20.51-15.11-26.5-3.46l-7,13.67h25L258.17,36.24c-3.76-5.31-9.79-8.47-16.38-6.66a14.84,14.84,0,0,0-10.65,14L231,53.52l28.45-3.85c-.46-1.5-.92-3-1.39-4.49-4-13-24.79-14.6-28,0q-1.47,6.78-3,13.56l26.62-3.5a80,80,0,0,1-4.94-12.41c-3.59-11.25-20.48-15-26.5-3.46l-2.31,4.43h25L236.22,25c-2.61-5.73-10.59-8.2-16.34-6.62a14.86,14.86,0,0,0-10.65,14,158.85,158.85,0,0,0,8,53.34c2.47,7.43,10,12.28,17.84,10.13S246.87,85.66,245.2,78q-5.69-26.16-11.38-52.35c-2.7-12.5-20.38-13.79-26.49-3.48a58.55,58.55,0,0,0-6.12,45L227.71,56,212.14,29.65c-5.68-9.62-19.25-9.13-25,0a68.9,68.9,0,0,0-10,26.09h28l-5.7-21.24c-3.69-13.94-24.12-13.66-28,0a56.89,56.89,0,0,0-2,15.19l28.48-3.85c-.9-2.71-1.79-5.42-2.69-8.13-3.9-11.79-19.8-14.4-26.5-3.46a64.79,64.79,0,0,0-9.14,29.51l27-7.32a83.75,83.75,0,0,1-8.37-20c-3.85-13.76-24.15-13.84-28,0-.59,2.15-1.19,4.3-1.78,6.46l26.5-3.46c-.72-1.53-1.43-3.06-2.15-4.58-4.2-9-16.4-8.6-22.77-2.93a70.44,70.44,0,0,0-17,22.73l26.5,3.46-5.8-28.16c-1.23-6.17-7.88-10.67-13.94-10.67-6.63,0-11.91,4.57-14,10.65a58.65,58.65,0,0,0-2.93,17.42l27-7.32-2.41-4.38c-5-9.06-20.23-9.84-25,0a78.1,78.1,0,0,0-8.35,35.32l28.48-3.85a164.7,164.7,0,0,1-4.77-28.43c-.49-6.43-4.16-12.2-10.65-14-5.85-1.61-13.6,1-16.38,6.66A134.76,134.76,0,0,0,97.24,82.49h29a387.74,387.74,0,0,0-1-46.61c-.48-5.83-3.24-11-8.91-13.25a14.6,14.6,0,0,0-15.84,3c-9.13,9.29-13.86,20.66-15.17,33.5h29c-.69-5.71-1.76-10.3-4.61-15.37-5.64-10-19.1-8.68-25,0l-2.54,3.71,26.5,3.46a60.84,60.84,0,0,0-7-15.82,14.55,14.55,0,0,0-14.45-6.87C82,29,76.16,33,75.22,38.63L72.65,52.86h28L94.87,37.05c-2.2-6.07-7.24-10.65-14-10.65-6.1,0-12.66,4.47-14,10.65q-3.08,14.61-6.19,29.19l28.48,3.85Q87.21,54,85.27,37.91c-.83-7.13-4.83-13.29-12.57-14.21A14.6,14.6,0,0,0,56.79,34.09Q52.91,46.15,49,58.24H77l-9.59-25.3C63,21.24,48.13,18.56,41,29.48A139.65,139.65,0,0,0,25.88,60.64l28.48,3.85q-1-16.08-2.08-32.18C51.82,25.14,47.12,19,39.71,18.07,33,17.24,25.28,21.24,23.8,28.46a30.7,30.7,0,0,1-.85,3.3c-.67,2.06.95-1.58-.18.27-.46.75-1.63,2.62-.4,1A25.05,25.05,0,0,1,20,35.51c-1.55,1.55,1.55-.93-.28.28a24.14,24.14,0,0,1-2.95,1.72c2.59-1.26-5.09.68-1.85.43C7.13,38.57.44,44.24.44,52.46.44,59.75,7,67.46,14.89,66.87Z" transform="translate(-0.44 -2.45)"/><path class="cls-1" d="M87.48,14.45c7.72,0,7.74-12,0-12s-7.73,12,0,12Z" transform="translate(-0.44 -2.45)"/><path class="cls-1" d="M154.34,115.1c7.72,0,7.73-12,0-12s-7.73,12,0,12Z" transform="translate(-0.44 -2.45)"/></svg>