<svg id="Layer_1" data-name="Layer 1" xmlns="http://www.w3.org/2000/svg" viewBox="0 0 816.88 573.29"><defs><style>.cls-1{fill:#3a86aa;}.cls-2{fill:#eb0d8c;}.cls-3{fill:none;stroke:#3a86aa;stroke-miterlimit:10;}</style></defs><path class="cls-1" d="M72.22,348q110.31,8.93,221,11.19,31.26.63,62.53.73c13.08.05,25.6-11.53,25-25s-11-24.95-25-25q-110.69-.37-221.2-7.4-31.2-2-62.37-4.52c-13.07-1.06-25.57,12.25-25,25,.64,14.45,11,23.87,25,25Z" transform="translate(0 -8.06)"/><path class="cls-1" d="M233.87,64.65q164.92,10.44,329.85,21l93.38,6c13.08.84,25.58-12.11,25-25-.63-14.27-11-24.1-25-25Q492.19,31.07,327.26,20.58l-93.39-5.93c-13.08-.83-25.58,12.09-25,25,.63,14.25,11,24.11,25,25Z" transform="translate(0 -8.06)"/><path class="cls-1" d="M137.84,581.35c84.31-1.11,168.67-1.5,253-3.5,40.8-1,81.59-2.55,122.38-3.73,42.23-1.23,84.44-1.58,126.68-1.87,45.35-.32,90.51-1.74,135.46-8.14,5.75-.82,12.16-6.73,14.94-11.49,3.14-5.36,4.47-13.26,2.52-19.27s-5.7-11.88-11.48-14.94c-6.36-3.36-12.22-3.52-19.27-2.52-1.1.16-2.34.44-3.47.49,6.07-.27,2.95-.38,1.43-.2-2.32.28-4.64.57-7,.84q-7,.81-14,1.44c-9.44.87-18.9,1.52-28.37,2-19.49,1-39,1.45-58.53,1.65-41.7.44-83.39.48-125.08,1.59-41.13,1.1-82.24,2.7-123.36,3.8-40.68,1.09-81.38,1.4-122.07,1.93l-143.77,1.89c-13.08.17-25.61,11.37-25,25,.6,13.4,11,25.18,25,25Z" transform="translate(0 -8.06)"/><path class="cls-2" d="M513.85,9c-41.4,0-82.79-1.43-124.2-.71-8.42.15-18.21-.32-26.37,2-10.18,2.88-18.84,13.16-18.35,24.11.5,11.15,7.43,20.92,18.35,24.11L375,61.89V13.68l-39.24,9.94c-12.08,3.06-19.51,15.47-17.91,27.43,1.68,12.49,12,21.21,24.55,21.68l84.52,3.15v-50Q319.86,28.57,213.16,38.39c-6.76.62-12.73,2.37-17.68,7.32-4.34,4.34-7.6,11.45-7.32,17.68.61,13.71,11,24.8,25,25L340,90.2v-50L307.15,40V90q147.56-1.78,295.13.72,41.85.72,83.7,1.77v-50L460.6,51.07,236.22,59.62,109.57,64.45v50L192,109c13-.86,25.63-10.88,25-25s-11-24.26-25-25q-49.18-2.6-98.45-.89c-13.06.45-25.62,11.17-25,25,.65,14.46,11,23.85,25,25l219.56,18,62.59,5.13v-50L313.1,86c-13,1-25.64,10.8-25,25,.6,13.36,11,25.23,25,25q171.39-2.78,342.78-6.14,48.47-1,96.92-2v-50c-16.67,1.64-33.43,2.86-50,5.09C688,85,674.2,94.53,674.26,111c0,9.07,4.32,16.23,11.24,21.58,7.82,6,16,6.36,25.57,4.94,5.53-.82,12.41-6.71,14.94-11.49a25.78,25.78,0,0,0,3-15.94,25,25,0,0,0-24.55-21.68Q585.51,88,466.61,90.8,348.4,93.62,230.3,99.7q-66.83,3.43-133.59,7.93c-13,.87-25.63,10.87-25,25s11,24.35,25,25q34.32,1.59,68.67,1.17c13.07-.16,25.61-11.39,25-25-.29-6.47-2.41-13.17-7.32-17.68-5.21-4.78-10.71-6.47-17.68-7.32a155.7,155.7,0,0,0-63.94,5.51c-10.15,3.13-18.85,13-18.35,24.11.48,10.66,7.36,21.62,18.35,24.11a826.75,826.75,0,0,0,154.48,19.55c13.08.44,25.59-11.81,25-25-.65-14.45-11-23.87-25-25l-55-4.44v50q109.24,2,218.48-2.87,30.68-1.38,61.32-3.31c13-.82,25.63-10.91,25-25s-11-24.36-25-25q-37.29-1.69-74.59.13c-13,.64-25.63,11-25,25,.61,13.68,11,24.84,25,25q136.95,1.6,273.88-2.47,38.64-1.16,77.27-2.77-3.33-24.56-6.65-49.11a228.75,228.75,0,0,1-27.73,6.64q-3.39.6-6.8,1.12a17.4,17.4,0,0,1-3.43.5c5.56.51,2.87-.38.59-.1-5,.61-10,1.1-14.95,1.52-20.53,1.7-41.14,2-61.72,2.1-44,.21-88,1-131.95,3.13-89.81,4.36-179.55,10.78-269.29,16.41-24.95,1.57-49.91,3.41-74.9,4.33-12.11.44-24.24.62-36.35.29q-9-.26-18-.9-4.7-.34-9.38-.84L93,151c-5.33-.57,5,.73-.78-.08q-3.33,24.56-6.65,49.11c3.76-.3,7.52-.49,11.3-.51,1.78,0,3.57,0,5.35.1,1,0,2,.1,3,.18.68,0,5.66.67,1.06,0s1.94.43,2.85.65,3.73.5,4.29,1.28c.21.28-6-3.27-2.76-1.1a18,18,0,0,1,1.87,1.12c-.06.1-4.5-3.62-3.08-2.29,1.58,1.48-2.91-4.95-1.25-1.41,10.47,22.34,36.2,23.67,57.59,23.56q61.83-.3,123.66-.73,123.64-.85,247.3-2.25,69.8-.78,139.59-1.73-3.33-24.56-6.65-49.11l-24.38,6c-10.23,2.5-18.83,13.44-18.35,24.11s7.37,21.47,18.35,24.11a586,586,0,0,0,89.15,13.93v-50q-134.24,7.41-268.6,11.72-134.6,4.32-269.26,5.52-37.92.34-75.85.43c-11.9,0-23.82-.14-35.72.12-12.4.27-25.63,1.06-37.27,5.64S28.13,223.61,29.9,236.8c1.75,13,12,20.49,24.55,21.68,83.89,7.91,168.16,10.67,252.38,11.4,84.84.73,169.68-.56,254.52-.72,48-.09,95.95.18,143.92,1.36q-3.33-24.55-6.65-49.11-6.32,1.09-12.65,2.06c-2.38.36-4.92.5-7.26,1.05.06,0,5-.64,2.09-.29l-4.56.57q-13.75,1.68-27.56,2.78c-18.31,1.48-36.66,2.3-55,2.72-37.3.85-74.62.06-111.92-.41-37.62-.47-75.28-.65-112.85,1.51-38,2.18-75.59,7.65-113.34,12.09-21.45,2.53-43,4.67-64.55,5.47-10.52.39-21.05.46-31.57.08q-7.62-.27-15.23-.86c-2.85-.22-5.7-.49-8.54-.79l-2.84-.31c-1.09-.13-7.69-1-.93-.07q-3.33,24.56-6.65,49.11,123.06-.06,246.1,1.75,122.48,1.81,244.92,5.49,69.13,2.08,138.24,4.76v-50c-84.31,5.63-168.64,11.26-253.08,14.59-42.3,1.67-84.62,2.75-127,3-41.18.22-82.37-.3-123.54.63-47.09,1.06-94.14,4.26-140.59,12.27C98.11,290.7,90.92,304.81,92.42,316A25,25,0,0,0,117,337.7l257.92,4.16L632.81,346c24,.39,48,.61,72,1.24,11.48.3,23,.76,34.43,1.62q8.49.63,17,1.6l3.73.45c3.23.37-5-.78-.16,0,3.06.49,6.12.95,9.17,1.49q3.33-24.56,6.65-49.11Q649,311.18,522.24,315q-127,3.81-254.15,3.55-71.5-.15-143-1.58c-12.45-.25-22.94,9.71-24.55,21.68-1.54,11.46,5.66,25,17.91,27.43,79.26,15.44,158.66,29.75,239.39,34.67q59.82,3.64,119.8,1.58c39.76-1.38,79.42-4.82,119.15-6.83,21.8-1.1,43.63-1.78,65.46-1.4,11.1.2,22.19.66,33.26,1.5q8,.6,16,1.47c2.5.27,5,.58,7.49.88,4.65.57-.31-.11-1-.14,1.86.1,3.76.55,5.59.83V350.41c-5.3.82-10.6,1.58-15.91,2.33-3.62.51,4.63-.59,1-.14l-4.71.6c-2.83.35-5.66.7-8.5,1q-16.61,1.93-33.27,3.33c-22.42,1.9-44.89,3.17-67.38,4.06-45.15,1.78-90.34,2-135.51,2.47q-138.85,1.37-277.7,3-78.4.9-156.82,1.88,3.33,24.56,6.65,49.11,8.57-1.63,17.18-3c2.71-.42,5.58-.56,8.25-1.2-5.92,1.43-1.77.25-.19,0s3.09-.38,4.63-.55q17.78-2,35.65-2.85a535.11,535.11,0,0,1,71.85,1.56c12.35,1.1,23-10.36,24.55-21.68,1.69-12.56-5.94-23.55-17.91-27.43-7.58-2.46-15.1-5.09-22.54-8-2.24-.86-4.46-1.75-6.68-2.65-1.65-.67-5.86-3.49-.59-.23-3.13-1.94-7-3.1-10.38-4.66q-10-4.68-19.66-10c-3.11-1.72-6.2-3.48-9.24-5.33-1-.63-3.68-1.65-4.32-2.77q4.13,3.31,1.31.67,5.22,12.45,4.19,6.47v13.29l-4.75,7.76L78.46,364C161,387.29,245.92,402.12,331.3,410.33c86.48,8.31,173.25,6.87,260,9.82,24.12.82,48.23,2,72.28,4.06q17.36,1.46,34.67,3.52l8.37,1c6.16.79-4.09-.59-.16,0l4.62.66q9.23,1.33,18.4,2.91,3.33-24.56,6.65-49.11l-277.68-.4c-92.11-.13-184.26-1-276.37.42-51.79.81-103.58,2.58-155.26,6.31-13,.94-25.63,10.83-25,25s11,24.24,25,25q138.07,7.45,276.29,12,138.42,4.56,276.92,6.21,77.76.93,155.52.94-3.33-24.56-6.65-49.11-13.67,4.29-27.69,7.25-6.75,1.42-13.56,2.59c-2.29.39-4.59.77-6.89,1.12l-3.47.52c-.86.13-6,.69-1.91.28,3.79-.38-.12,0-1.06.12l-3.53.42c-2.36.27-4.73.53-7.09.77q-7.6.76-15.24,1.33c-10.32.76-20.65,1.27-31,1.61-41.85,1.36-83.75.11-125.61-.12q-132.75-.74-265.47,3.31Q152,431.08,77.58,434.86c-13,.66-25.63,11-25,25,.61,13.58,11,24.95,25,25l266.36.9c88,.3,176.16-.69,264.16,1.48,23.81.59,47.63,1.61,71.38,3.47,12,1,24.07,2.11,36.06,3.55,2.82.34,5.64.7,8.46,1.06,3.62.46-4.63-.66-1-.13l4.67.67q9.3,1.36,18.55,3,3.33-24.55,6.65-49.11c-84.21,10-169.05,13-253.79,14.08-85.56,1.09-171.14.24-256.68,2.43-47.65,1.22-95.28,3.42-142.78,7.43-13,1.1-25.64,10.71-25,25,.29,6.47,2.41,13.17,7.32,17.68,5.21,4.79,10.71,6.46,17.68,7.32,88.95,11,178.53,15.8,268.09,18.1,90.59,2.32,181.22,2.13,271.83,3.1,50.79.54,101.59,1.46,152.35,3.38v-50c-92.81,11.69-186.56,12.15-279.95,10.36-93.68-1.8-187.38-6-281.09-3.9-52.35,1.15-104.69,4.29-156.64,11-6.89.89-12.56,2.2-17.68,7.32-4.34,4.34-7.6,11.45-7.32,17.68.61,13.59,11,24.95,25,25q135.51.49,271,1.22c90.19.56,180.38,1.22,270.56,2.63,25,.39,50.06,1,75.06,2.28,12.24.65,24.48,1.47,36.69,2.55q9.11.81,18.18,1.8c3.17.35,6.35.72,9.52,1.12l3.8.48c5.36.68-4.89-.68.92.13,7,1,12.93,1.18,19.26-2.52,5.19-3,10.13-9,11.49-14.94,1.46-6.4,1.14-13.58-2.52-19.26-3.26-5.06-8.69-10.62-14.94-11.49-90.13-12.55-181.81-10.63-272.61-11.54q-136.49-1.38-273-1.87-76.73-.35-153.44-.6v50c92.72-12,186.42-12.56,279.75-10.82,93.7,1.74,187.41,5.94,281.15,4,52.39-1.07,104.78-4.1,156.79-10.66,6.88-.87,12.57-2.22,17.68-7.32,4.34-4.34,7.6-11.45,7.32-17.68-.63-14-11-24.47-25-25-90.55-3.41-181.18-3.64-271.79-4.3-90.29-.66-180.63-1.74-270.79-7-50-2.91-100-7.14-149.69-13.3v50c85-7.18,170.29-8.51,255.52-9,85.4-.48,170.85-.09,256.19-3.87,47.29-2.09,94.53-5.51,141.54-11.09,6.55-.78,13-2.18,17.68-7.32a25.7,25.7,0,0,0,6.88-14.35c1.52-11.28-5.63-25.3-17.91-27.43-86.8-15.09-175.12-14.06-262.91-14.35l-268.36-.9-150.64-.51v50q132.93-6.75,266.06-8.7,67.13-1,134.27-.73c42.51.15,85.05,1.36,127.56.49,45.79-.93,92.77-4.29,136.69-18.09,11.94-3.75,19.59-14.92,17.91-27.43a25,25,0,0,0-24.55-21.68q-138.56,0-277.1-3Q320,402.85,181.73,397q-77.49-3.27-154.94-7.46v50c92-6.63,184.24-7,276.42-6.94s184.42.26,276.63.4l156.26.23a25,25,0,0,0,24.55-21.68c1.51-11.25-5.62-25.34-17.91-27.43-86.35-14.69-174-14.62-261.29-16.2-43.39-.78-86.75-2.2-130-5.78q-32.08-2.65-64-6.67l-7.58-1-3.78-.5c5.88.82,2.25.3,1,.12-5.65-.8-11.3-1.59-16.94-2.43q-15.9-2.38-31.74-5.11A1340.27,1340.27,0,0,1,91.75,315.77c-8.23-2.32-18.47-.06-24.32,6.43-7.26,8.05-11,18.5-7.73,29.31,2.81,9.24,9.45,15.62,17.1,21s16.33,9.77,24.71,14a431.44,431.44,0,0,0,60.63,24.66q3.33-24.56,6.65-49.11a547.45,547.45,0,0,0-150.68,7.76C5.92,372.15-1.33,385.88.2,397.26c1.62,12.05,12,21.83,24.55,21.68q139.85-1.74,279.69-3.25c92.23-1,184.59-.55,276.78-3.58,52.1-1.71,104.08-5.5,155.62-13.48,10.29-1.59,18.8-14.11,18.35-24.11s-7.33-22.43-18.35-24.11c-80.16-12.22-160.4-2.77-240.79,1.14q-59.83,2.91-119.75.18-29.55-1.37-59-4.13-14.87-1.39-29.68-3.17-7.23-.87-14.46-1.81c-.58-.08-3.89-.51-.55-.07,3.55.46-.64-.09-1.51-.21l-8.67-1.23c-43.8-6.35-87.25-14.79-130.68-23.25q-3.33,24.56-6.65,49.11,127.1,2.53,254.23,1t253.9-7.11q71.21-3.13,142.35-7.57c12.51-.78,22.84-8.92,24.55-21.68,1.52-11.29-5.63-25.28-17.91-27.43-42.74-7.5-86.18-7.16-129.42-7.85l-130-2.09-259.92-4.19-146-2.35q3.33,24.56,6.65,49.11,7.35-1.26,14.72-2.38l6.48-.93c3.59-.52-4.68.59-1.08.14l4.65-.59q15-1.84,30-3.1c20.29-1.72,40.63-2.73,61-3.33,40.52-1.2,81.07-.8,121.6-.88,84.17-.18,168.27-3.7,252.28-8.59,47.09-2.74,94.16-5.89,141.23-9,13-.87,25.63-10.88,25-25s-11-24.46-25-25q-122.84-4.75-245.73-7.63-122.49-2.86-245-3.85-69.26-.55-138.5-.52a25,25,0,0,0-24.55,21.68c-1.47,11,5.58,25.74,17.91,27.43,39.94,5.48,79.56,4.4,119.58.21,38.61-4,77-10.12,115.71-13,75.73-5.71,151.71-.84,227.54-1.88,43.71-.6,87.37-3.43,130.49-10.9,12.22-2.12,19.42-16.21,17.91-27.43a25,25,0,0,0-24.55-21.68c-84.82-2.09-169.66-1.31-254.49-.76-84.65.55-169.33.87-253.94-2.23-47.54-1.74-95-4.58-142.39-9.05q3.33,24.56,6.65,49.11c1-.41,12.19-4,12.32-3.32,0,.17-5.61.59-1.57.22,1.16-.11,2.31-.23,3.47-.31,3-.23,5.91-.35,8.86-.43,10.87-.28,21.75-.11,32.62-.13q32.94-.07,65.87-.33,66.86-.52,133.69-1.81,134.06-2.58,268-8.24,75.08-3.18,150.11-7.32c13-.72,25.63-11,25-25-.65-14.46-11-23.86-25-25q-10.61-.87-21.18-2.1l-4.77-.59c-3.22-.37,4.87.7,0,0-3.46-.5-6.93-1-10.38-1.56q-19.9-3.18-39.51-7.9V222L683,216c12.1-3,19.5-15.55,17.91-27.43-1.62-12-12-21.85-24.55-21.68q-123.63,1.68-247.28,2.84T181.8,171.56c-10.61.05-21.38.63-32-.26-.78-.07-1.57-.21-2.35-.23,6.7.19,2.91.4.78-.15-.66-.17-1.32-.43-2-.58-2.91-.69,5.25,2.86,1.92.7.75.49,5,3.57,5.13,5.2,0-.77-1.22-2.17-1.6-2.82a44.48,44.48,0,0,0-6.52-8.93c-14.95-15.16-39.7-16-59.6-14.43-12.51,1-22.82,8.76-24.55,21.68-1.48,11,5.59,25.69,17.91,27.43,45.53,6.44,90.87,3.52,136.56.65l137-8.6c90.06-5.65,180.1-11.93,270.39-12.15,46.95-.11,95.73.37,141-13.6,11.95-3.69,19.58-15,17.91-27.43-1.58-11.79-12.07-22.2-24.55-21.68Q620.55,122,483.62,122.05q-38.72,0-77.43-.46v50q37.28-1.83,74.59-.13v-50q-108.94,6.84-218.19,6.78-30.81,0-61.61-.6c-13.08-.24-25.6,11.67-25,25,.65,14.45,11,23.87,25,25l55,4.44v-50q-37.3-1.25-74.39-5.82l-3.81-.49c-3.22-.39,4.88.7,0,0-3.15-.45-6.3-.89-9.45-1.37q-8.91-1.35-17.79-2.9-18-3.15-35.76-7.19v48.21a124.33,124.33,0,0,1,13-3.28c1.14-.22,2.27-.42,3.42-.61,2.78-.42,2.3-.38-1.44.14,2-.72,4.94-.54,7.07-.7a145.69,145.69,0,0,1,28.55.73v-50q-34.35.4-68.67-1.17v50Q215,149.68,333.47,145q118.26-4.65,236.61-6,67.18-.79,134.36-.54-3.33-24.55-6.65-49.11l-1.36.2h13.29l11.17,9.3q1.71,6.31,3.41,12.62l-.06-.86q-1.71,6.32-3.41,12.62c.16-.27.32-.54.49-.8l-9,9q3-2-2.59.87,3.93-.82-2.07.09c0-.14,5.29-.53,5.53-.55l12.87-1.26,26.73-2.62c6.79-.67,12.7-2.34,17.68-7.32,4.34-4.34,7.6-11.45,7.32-17.68-.6-13.31-11-25.29-25-25q-171.37,3.54-342.76,6.48Q361.6,85.2,313.11,86v50l62.63-4.71c13-1,25.64-10.8,25-25-.65-14.46-11-23.85-25-25l-219.56-18L93.59,58.13v50q49.23-1.71,98.45.89V59l-82.46,5.43c-13,.86-25.63,10.88-25,25,.59,13.12,11,25.53,25,25L335,105.86l224.38-8.55L686,92.48c13-.5,25.62-11.14,25-25s-11-24.65-25-25q-147.51-3.72-295.07-3.16-41.88.16-83.75.67c-13.07.16-25.61,11.39-25,25s11,24.91,25,25L340,90.2c13.08.08,25.6-11.56,25-25-.61-13.71-11-24.8-25-25l-126.8-1.81v50q106.63-9.84,213.75-12.51c13.06-.33,25.62-11.26,25-25-.63-14-11-24.48-25-25l-84.52-3.15q3.33,24.55,6.65,49.11L388.3,61.9c10.22-2.59,18.83-13.38,18.35-24.11-.5-11.15-7.43-20.92-18.35-24.11l-11.71-3.42V58.47c4.17-1.18-7.8.75-4.33.52,1.28-.08,2.55-.22,3.83-.29,3.77-.22,7.55-.31,11.33-.39,11-.23,22-.24,32.94-.22,24.25,0,48.51.33,72.76.64,6.91.09,13.83.25,20.75.24,13.08,0,25.6-11.5,25-25s-11-25-25-25Z" transform="translate(0 -8.06)"/><path class="cls-3" d="M581.34,706.78" transform="translate(0 -8.06)"/><path class="cls-3" d="M567,722.2" transform="translate(0 -8.06)"/></svg>